<svg xmlns="http://www.w3.org/2000/svg" xmlns:xlink="http://www.w3.org/1999/xlink" preserveAspectRatio="xMidYMid" width="12" height="15" viewBox="0 0 12 15">
  <defs>
    <style>
      .cls-1 {
        fill: #d31f45;
        fill-rule: evenodd;
      }
    </style>
  </defs>
  <path d="M6.000,-0.000 C2.687,-0.000 -0.000,2.519 -0.000,5.625 C-0.000,8.130 1.748,10.250 4.162,10.978 L6.000,15.000 L7.840,10.978 C10.252,10.250 12.000,8.130 12.000,5.625 C12.000,2.519 9.314,-0.000 6.000,-0.000 ZM8.619,8.437 C7.914,9.014 7.006,9.375 6.000,9.375 C4.994,9.375 4.086,9.014 3.383,8.437 C2.543,7.749 2.000,6.750 2.000,5.625 C2.000,3.557 3.795,1.875 6.000,1.875 C8.207,1.875 10.000,3.557 10.000,5.625 C10.000,6.750 9.459,7.749 8.619,8.437 Z" class="cls-1"/>
</svg>
