
<svg xmlns="http://www.w3.org/2000/svg" xml:space="preserve" width="60px" height="60px" version="1.1" style="shape-rendering:geometricPrecision; text-rendering:geometricPrecision; image-rendering:optimizeQuality; fill-rule:evenodd; clip-rule:evenodd"
viewBox="0 0 6000 6000"
 xmlns:xlink="http://www.w3.org/1999/xlink">


 <g id="Слой_x0020_1">
  <metadata id="CorelCorpID_0Corel-Layer"/>
  <path class="fil0" d="M-2525571 77333l-13369 0 0 -1037c0,-2607 -1866,-4648 -4253,-4648 -2385,0 -4257,2041 -4257,4648l0 1037 -13369 0c-334,0 -606,288 -606,638l0 25451c0,353 272,640 606,640l35248 0c334,0 606,-287 606,-640l0 -25451c0,-350 -272,-638 -606,-638zm-20660 -1037l0 0c0,-1925 1303,-3376 3038,-3376 1731,0 3040,1451 3040,3376l0 1037 -6078 0 0 -1037 0 0zm20051 2309l0 0 0 4838c-4010,2803 -8619,4503 -13370,4947l0 -1510c0,-353 -268,-640 -603,-640l-6078 0c-334,0 -609,287 -609,640l0 1519c-4747,-431 -9354,-2128 -13370,-4928l0 -4866 34030 0 0 0zm-14582 8913l0 0 0 3812 -4866 0 0 -3812 4866 0zm-19448 15269l0 0 0 -17813c4054,2666 8648,4288 13370,4703l0 2294c0,350 275,634 609,634l6078 0c335,0 603,-284 603,-634l0 -2303c4729,-425 9319,-2057 13370,-4722l0 17841 -34030 0 0 0z"/>
  <path class="fil1" d="M4972 2442l-379 0 0 -244c0,-823 -626,-1444 -1458,-1444 -831,0 -1458,619 -1458,1440l0 248 -302 0c-287,0 -465,73 -465,434l0 485c0,328 139,469 465,469l379 0c42,0 77,-35 77,-78l0 -1558c0,-734 561,-1287 1304,-1287 744,0 1305,555 1305,1291l0 2294c0,494 -198,494 -273,494l-648 0c-2,0 -3,0 -5,1 -21,-132 -133,-233 -270,-233l-371 0c-152,0 -275,124 -275,277l0 64c0,152 123,276 275,276l371 0c137,0 249,-101 270,-232 2,0 3,1 5,1l648 0c194,0 426,-113 426,-648l0 -662 379 0c361,0 388,-186 388,-469l0 -485c0,-302 -36,-434 -388,-434l0 0zm-3295 1233l0 0 -302 0c-242,0 -312,-70 -312,-314l0 -485c0,-230 56,-280 312,-280l302 0 0 1079zm1688 1420l0 0c0,67 -54,122 -121,122l-371 0c-67,0 -122,-55 -122,-122l0 -64c0,-68 55,-122 122,-122l371 0c67,0 121,54 121,122l0 64zm1842 -1734l0 0c0,271 -16,314 -235,314l-379 0 0 -1079 379 0c229,0 235,20 235,280l0 485zm-921 91l0 0 0 -993c0,-541 -730,-869 -1051,-869 -36,0 -67,26 -74,63 -90,463 -491,729 -1100,729 -42,0 -77,34 -77,77l0 1010c0,586 527,1079 1151,1079 613,0 1151,-512 1151,-1096l0 0zm-2148 17l0 0 0 -935c610,-22 1036,-311 1158,-786 286,37 836,312 836,711l0 993c0,503 -465,942 -997,942 -531,0 -997,-432 -997,-925z"/>
 </g>
 <g id="__x0023_Layer_x0020_1" visibility="hidden">
  <metadata id="CorelCorpID_1Corel-Layer"/>
  <g id="_452316646112">
   <g>
    <path class="fil2" d="M-962 311c-357,50 -634,192 -834,427 -197,236 -298,544 -298,924l0 452 -557 77 0 482 557 -77 0 3088 650 -90 0 -3088 743 -103 0 -482 -743 103 0 -452c0,-216 46,-387 138,-512 93,-126 233,-202 423,-228 61,-9 120,-14 176,-16 57,0 104,0 144,4l78 -507c-92,-8 -175,-13 -252,-15 -75,-2 -151,2 -225,13zm2461 1239l0 0c-194,27 -365,103 -514,227 -148,124 -273,285 -374,484l-62 -513 -581 81 0 3568 649 -89 0 -2551c64,-156 156,-282 273,-381 118,-97 262,-158 434,-181l333 -26 89 -616c-28,-6 -65,-9 -108,-11 -45,0 -91,2 -139,8zm2104 -291l0 0c-413,57 -771,276 -1073,656 -303,378 -455,822 -455,1330l0 146c0,528 148,937 441,1226 294,292 689,403 1186,332 297,-40 550,-117 759,-231 209,-112 377,-241 505,-383l-254 -389c-121,127 -264,233 -431,318 -166,87 -359,144 -579,174 -301,42 -536,-35 -702,-232 -168,-198 -254,-466 -261,-809l10 -17 2316 -321 0 -405c0,-485 -124,-855 -370,-1111 -246,-256 -610,-351 -1092,-284zm812 1378l0 0 -1646 229 -8 -16c36,-281 131,-523 284,-728 155,-204 341,-322 558,-352 269,-37 471,21 608,173 135,151 204,355 204,609l0 85zm4223 -72l0 0 0 -407c0,-483 -124,-854 -370,-1110 -246,-257 -610,-350 -1092,-284 -413,57 -771,275 -1073,655 -302,380 -455,824 -455,1332l0 145c0,527 147,936 442,1227 293,290 689,401 1185,332 297,-40 550,-117 759,-231 209,-114 378,-241 505,-385l-254 -388c-121,127 -265,233 -431,319 -166,85 -358,144 -579,174 -301,42 -535,-36 -702,-233 -168,-198 -255,-467 -261,-808l10 -18 2316 -320zm-2019 -938l0 0c153,-203 340,-321 557,-351 268,-38 471,20 608,171 135,152 204,356 204,610l0 85 -1646 228 -7 -15c35,-282 130,-523 284,-728z"/>
   </g>
  </g>
 </g>
 <g id="__x0023_Layer_x0020_2" visibility="hidden">
  <metadata id="CorelCorpID_2Corel-Layer"/>
  <g id="_452316646944">
   <g>
    <path class="fil3" d="M7800 1368l-992 0 0 -639c0,-2155 -1640,-3780 -3815,-3780 -2173,0 -3814,1621 -3814,3770l0 649 -790 0c-751,0 -1217,189 -1217,1135l0 1268c0,860 363,1227 1217,1227l991 0c110,0 201,-90 201,-202l0 -4077c0,-1920 1467,-3367 3412,-3367 1946,0 3414,1453 3414,3377l0 6002c0,1292 -518,1292 -714,1292l-1696 0c-4,0 -7,2 -12,3 -55,-344 -349,-608 -707,-608l-970 0c-397,0 -719,324 -719,722l0 170c0,398 322,721 719,721l970 0c358,0 652,-263 707,-606 5,0 8,2 12,2l1696 0c509,0 1115,-295 1115,-1696l0 -1733 992 0c945,0 1016,-486 1016,-1227l0 -1268c0,-790 -96,-1135 -1016,-1135zm-8621 3226l0 0 -790 0c-633,0 -817,-184 -817,-823l0 -1268c0,-602 146,-732 817,-732l790 0 0 2823zm4417 3716l0 0c0,175 -143,318 -318,318l-970 0c-176,0 -319,-143 -319,-318l0 -170c0,-176 143,-319 319,-319l970 0c175,0 318,143 318,319l0 170zm4818 -4539l0 0c0,710 -41,823 -614,823l-992 0 0 -2823 992 0c600,0 614,51 614,732l0 1268zm-2409 240l0 0 0 -2600c0,-1414 -1909,-2272 -2749,-2272 -95,0 -178,68 -196,163 -235,1213 -1283,1908 -2878,1908 -110,0 -201,90 -201,201l0 2645c0,1531 1379,2823 3012,2823 1605,0 3012,-1340 3012,-2868zm-5621 45l0 0 0 -2447c1596,-58 2710,-813 3031,-2056 746,96 2188,814 2188,1858l0 2600c0,1314 -1219,2465 -2610,2465 -1390,0 -2609,-1131 -2609,-2420z"/>
   </g>
  </g>
 </g>
 <g id="__x0023_Layer_x0020_3" visibility="hidden">
  <metadata id="CorelCorpID_3Corel-Layer"/>
  <g id="_452316642464">
   <g>
    <path class="fil4" d="M6313 2357c-95,0 -173,77 -173,173l0 5287 -7978 0 0 -8662 6824 0c96,0 173,-77 173,-173 0,-96 -77,-173 -173,-173l-6997 0c-97,0 -174,77 -174,173l0 9008c0,95 77,173 174,173l8324 0c96,0 174,-78 174,-173l0 -5460c0,-96 -78,-173 -174,-173zm1809 -4079l0 0c-110,-266 -385,-460 -653,-460 -154,0 -296,61 -411,176l-4162 4157c-16,15 -28,34 -37,54l-520 1213c-28,65 -14,140 36,191 35,32 78,50 123,50 23,0 47,-4 69,-13l1213 -521c21,-8 39,-21 54,-36l4162 -4158c176,-175 223,-420 126,-653zm-4509 4542l0 0 -785 336 337 -784 3495 -3492 449 448 -3496 3492zm4138 -4134l0 0 -397 397 -449 -448 398 -397c49,-49 103,-74 166,-74 130,0 276,109 333,247 44,105 26,198 -51,275zm-7675 2161l0 0 -894 -894 -239 238 1013 1014 120 -119 119 119 1352 -1351 -240 -239 -1231 1232zm1351 915l0 0 -2365 0 0 338 2365 0 0 -338zm-2365 1351l0 0 2365 0 0 -338 -2365 0 0 338zm0 1013l0 0 2365 0 0 -338 -2365 0 0 338zm6419 676l0 0 -6419 0 0 339 6419 0 0 -339zm0 1014l0 0 -6419 0 0 337 6419 0 0 -337zm-6419 1351l0 0 6419 0 0 -338 -6419 0 0 338z"/>
   </g>
  </g>
 </g>
 <g id="__x0023_Layer_x0020_4" visibility="hidden">
  <metadata id="CorelCorpID_4Corel-Layer"/>
  <g id="_452316640832">
   <g>
    <path class="fil2" d="M-1767 10323c1257,-49 3061,-125 5314,-219l-5312 203c-1,4 -2,15 -2,16zm11647 -2786l0 0c0,-374 -554,-2606 -2035,-3660 -12,-9 -26,-12 -38,-17 210,-639 320,-1246 320,-1381l0 -1187c0,-1039 -568,-2156 -1817,-2156 -257,0 -495,51 -714,146l0 -589c0,-1508 -903,-3035 -2629,-3035 -1707,0 -2629,1564 -2629,3035l0 584c-216,-92 -451,-141 -705,-141 -1254,0 -1826,1117 -1826,2156l0 1187c0,155 124,750 338,1377 -16,6 -32,11 -47,21 -1392,992 -2024,3143 -2024,3660 0,112 -102,2442 434,1493l-17 -1695c120,-612 651,-2257 1794,-3099 122,307 264,599 422,832 -538,1142 -811,2192 -811,2469 0,112 -201,2786 -94,2786l433 -16c38,-198 81,-2972 81,-2972 167,-792 1024,-3421 2640,-4694 430,988 1090,1921 2011,1921 947,0 1618,-989 2046,-2008 1598,1293 2445,3979 2607,4781 0,0 177,2501 209,2593 -1563,63 -2995,122 -4282,176l4620 -176c108,0 -128,-2279 -128,-2391 0,-206 -255,-1288 -790,-2483 161,-228 301,-512 419,-811 1090,809 1675,2448 1797,3092 0,0 162,808 53,1243 68,281 338,0 338,0 129,-174 24,-929 24,-1041zm-10967 -2883l0 0c-420,-748 -716,-1994 -716,-2175l0 -1187c0,-845 450,-1753 1436,-1753 238,0 455,50 646,149 19,10 39,14 59,17l0 706c0,215 150,1008 463,1844 -791,594 -1420,1500 -1888,2399zm4054 -495l0 0c-1491,0 -2239,-3330 -2239,-3748l0 -1718c0,-1058 597,-2632 2239,-2632 1643,0 2239,1574 2239,2632l0 1718c0,418 -747,3748 -2239,3748zm4771 -1680l0 0c0,156 -258,1405 -688,2156 -457,-920 -1080,-1852 -1885,-2469 290,-803 431,-1548 431,-1755l0 -703c23,-2 47,-8 70,-20 190,-99 408,-149 644,-149 1127,0 1428,1102 1428,1753l0 1187z"/>
   </g>
  </g>
 </g>
 <g id="__x0023_Layer_x0020_6" visibility="hidden">
  <metadata id="CorelCorpID_5Corel-Layer"/>
  <g id="_452316639264">
   <g>
    <path class="fil2" d="M362 7650c-49,57 -61,137 -31,206 31,68 100,112 174,112l4979 0c105,0 191,-85 191,-191 0,-61 -27,-114 -70,-150 -659,-757 -1606,-1191 -2601,-1191 -1005,0 -1969,442 -2642,1214zm606 -65l0 0c567,-490 1288,-765 2036,-765 746,0 1462,275 2020,765l-4056 0zm6226 765l0 0 -770 0c-102,-2512 -2150,-5324 -2476,-5757l0 -471c382,-372 2340,-2384 2455,-4492l791 0c105,0 191,-85 191,-191 0,-106 -86,-192 -191,-192l-8402 0c-105,0 -191,86 -191,192 0,106 86,191 191,191l790 0c115,2108 2073,4120 2456,4492l0 471c-326,433 -2375,3245 -2477,5757l-769 0c-105,0 -191,86 -191,193 0,105 86,190 191,190l8402 0c105,0 191,-85 191,-190 0,-107 -86,-193 -191,-193zm-7256 0l0 0c113,-2543 2418,-5544 2442,-5574 25,-34 40,-76 40,-117l0 -619c0,-53 -22,-104 -61,-139 -23,-22 -2269,-2147 -2400,-4271l6068 0c-131,2124 -2377,4249 -2400,4271 -39,35 -62,86 -62,139l0 619c0,41 15,83 41,117 24,30 2329,3028 2443,5574l-6111 0zm2864 -4594l0 0c0,106 85,191 191,191 105,0 191,-85 191,-191l0 -2184c789,-316 2014,-2382 2347,-3302 22,-59 13,-125 -23,-175 -35,-51 -94,-82 -156,-82l-4718 0c-63,0 -120,31 -156,82 -36,50 -45,116 -24,175 333,920 1557,2985 2348,3302l0 2184zm-1887 -5360l0 0 4156 0c-532,1249 -1728,2838 -2078,2838 -350,0 -1547,-1589 -2078,-2838z"/>
   </g>
  </g>
 </g>
 <g id="__x0023_Layer_x0020_7" visibility="hidden">
  <metadata id="CorelCorpID_6Corel-Layer"/>
  <g id="_452316635616">
   <g>
    <path class="fil2" d="M8872 2461c502,-509 502,-1337 0,-1848l-3440 -3494c-502,-509 -1318,-509 -1819,0l-628 638c-10,-20 -21,-40 -37,-56l-573 -582c-243,-246 -566,-382 -910,-382 -345,0 -668,136 -910,382l-3441 3494c-242,246 -376,574 -376,924 0,351 134,678 376,924l956 970c19,19 40,32 62,42 -20,18 -43,32 -62,52l-574 583c-291,295 -291,776 0,1071l382 388c140,142 328,221 528,221 7,0 14,-2 21,-2 -5,201 66,404 216,557l382 388c141,142 328,221 527,221 8,0 15,-2 23,-2 0,8 -3,15 -3,22 0,203 77,393 218,537l382 387c141,142 328,221 528,221 7,0 14,-2 21,-2 0,7 -2,14 -2,22 0,203 77,392 217,535l344 350c140,141 345,222 568,222 220,0 424,-81 562,-220l538 -545c19,-20 33,-43 51,-63 10,22 23,44 41,63l520 528c137,140 347,223 571,227l16 0c224,0 428,-79 564,-217l3779 -3838c292,-295 292,-776 0,-1072l-628 -638c19,-10 39,-21 56,-38l954 -970zm-10703 2811l0 0 -382 -388c-131,-133 -131,-350 0,-482l574 -583c114,-117 265,-180 427,-180 162,0 314,63 428,181 236,240 236,630 0,869l-573 583c-126,128 -348,128 -474,0zm1146 1164l0 0 -382 -388c-130,-133 -130,-349 0,-481l574 -583c114,-115 266,-180 428,-180 162,0 315,65 429,180 236,241 236,631 0,871l-574 581c-126,128 -349,127 -475,0zm1147 1165l0 0 -382 -388c-63,-64 -98,-148 -98,-241 0,-92 35,-177 98,-241l574 -581c114,-118 266,-182 429,-182 161,0 313,64 427,182 115,115 178,270 178,434 0,164 -63,319 -178,435l-574 582c-125,127 -346,129 -474,0zm2196 583l0 0 -538 544c-123,125 -428,123 -549,-1l-344 -350c-62,-63 -98,-149 -98,-240 0,-92 36,-178 98,-241l572 -581c116,-117 269,-182 430,-182 162,0 313,65 429,182 235,239 235,629 0,869zm5640 -3541l0 0c0,91 -35,177 -98,241l-628 638c-10,-20 -21,-39 -37,-56l-1146 -1164c-81,-82 -210,-82 -290,0 -81,81 -81,213 0,293l1146 1166c16,16 36,27 55,37l-875 888c-9,-20 -20,-39 -36,-56l-1149 -1164c-80,-81 -209,-81 -289,0 -81,82 -81,213 0,295l1148 1164c16,17 35,28 55,38l-877 889c-9,-20 -20,-40 -37,-57l-1146 -1165c-80,-81 -210,-81 -291,0 -80,82 -80,214 0,295l1148 1165c16,16 35,27 55,37l-586 596c-59,60 -166,95 -282,94 -116,-3 -227,-43 -289,-105l-519 -528c-43,-44 -100,-62 -156,-59 45,-118 70,-245 70,-377 0,-275 -105,-534 -296,-729 -193,-194 -447,-302 -719,-302 -49,0 -97,7 -145,14 7,-48 14,-97 14,-147 0,-275 -106,-535 -297,-729 -192,-196 -448,-303 -718,-303 -50,0 -98,7 -146,14 44,-310 -49,-638 -283,-877 -192,-194 -447,-301 -719,-301 -50,0 -97,7 -145,14 7,-48 14,-97 14,-147 0,-276 -106,-536 -297,-730 -193,-195 -447,-303 -719,-303 -129,0 -254,26 -370,73 3,-57 -15,-115 -58,-159l-956 -970c-165,-167 -256,-391 -256,-629 0,-238 91,-462 257,-629l3440 -3494c165,-167 384,-259 620,-259 234,0 454,92 619,259l574 582c16,16 35,27 55,37l-2732 2773c-192,197 -298,456 -298,732 0,276 106,534 298,728 396,402 1041,402 1437,0l2349 -2385c10,20 20,39 36,56l4397 4465c63,64 98,149 98,241zm-4204 -5001l0 0c-16,-17 -35,-27 -55,-37l55 -56c80,-81 80,-213 0,-295 -80,-81 -210,-81 -291,0l-2675 2718c-237,240 -620,240 -856,-1 -115,-115 -178,-270 -178,-434 0,-164 63,-319 178,-435l3631 -3688c343,-347 898,-347 1239,0l3441 3493c341,348 341,912 0,1259l-956 970c-16,17 -27,36 -37,57l-3496 -3551z"/>
   </g>
  </g>
 </g>
 <g id="__x0023_Layer_x0020_8" visibility="hidden">
  <metadata id="CorelCorpID_7Corel-Layer"/>
  <g id="_452316635488">
   <g>
    <path class="fil2" d="M8622 -369l-4269 0 0 -332c0,-832 -597,-1484 -1359,-1484 -762,0 -1359,652 -1359,1484l0 332 -4270 0c-107,0 -193,91 -193,203l0 8129c0,112 86,204 193,204l11257 0c107,0 194,-92 194,-204l0 -8129c0,-112 -87,-203 -194,-203zm-6598 -332l0 0c0,-614 416,-1077 970,-1077 553,0 971,463 971,1077l0 332 -1941 0 0 -332zm6403 738l0 0 0 1545c-1280,895 -2753,1438 -4269,1580l0 -483c0,-112 -86,-204 -193,-204l-1941 0c-107,0 -195,92 -195,204l0 486c-1516,-138 -2987,-680 -4269,-1574l0 -1554 10867 0zm-4657 2846l0 0 0 1218 -1553 0 0 -1218 1553 0zm-6210 4876l0 0 0 -5688c1294,851 2761,1369 4269,1502l0 732c0,113 88,203 195,203l1941 0c107,0 193,-90 193,-203l0 -735c1509,-136 2975,-656 4269,-1508l0 5697 -10867 0z"/>
   </g>
  </g>
 </g>
 <g id="__x0023_Layer_x0020_9" visibility="hidden">
  <metadata id="CorelCorpID_8Corel-Layer"/>
  <g id="_452316634784">
   <g>
    <path class="fil4" d="M6424 5411c215,-381 339,-820 339,-1288 0,-1463 -1198,-2651 -2670,-2651 -1472,0 -2669,1188 -2669,2651 0,516 152,998 411,1406l-700 1010 -3401 0 0 -9824 5024 0 0 2028 2198 0 0 2027 315 0 0 -2339 -96 0 -2103 -1939 0 -88 -5652 0 0 10447 3499 0 -802 1158 129 89 14 155 1768 -146 585 1452 146 -58 137 76 1433 -2561 1433 2561 137 -76 140 70 737 -1464 1514 136 9 11 12 -9 87 8 7 -84 162 -131 -2143 -2627zm-3352 -8494l0 0 1642 1514 -1642 0 0 -1514zm-291 12222l0 0 -505 -1255 -145 58 -13 -156 -1554 129 1464 -2115c490,593 1234,972 2065,972 5,0 9,-1 13,-1l-1325 2368zm1312 -2678l0 0c-1299,0 -2355,-1050 -2355,-2338 0,-1290 1056,-2340 2355,-2340 1300,0 2356,1050 2356,2340 0,1288 -1056,2338 -2356,2338zm2606 1325l0 0 -14 156 -142 -70 -651 1295 -1362 -2434c690,-113 1290,-489 1694,-1021l1790 2193 -1315 -119zm-8180 -9199l0 0 0 312 3454 0 0 -312 -3454 0zm5653 1403l0 0 -5653 0 0 312 5653 0 0 -312zm-2984 1403l0 0 -2669 0 0 312 2669 0 0 -312zm-628 1561l0 0 -2041 0 0 311 2041 0 0 -311zm-2041 1870l0 0 2041 0 0 -312 -2041 0 0 312z"/>
   </g>
  </g>
 </g>
</svg>
