
<svg xmlns="http://www.w3.org/2000/svg" xml:space="preserve" width="13.6398mm" height="6.9342mm" version="1.1" style="shape-rendering:geometricPrecision; text-rendering:geometricPrecision; image-rendering:optimizeQuality; fill-rule:evenodd; clip-rule:evenodd"
viewBox="0 0 1364 693"
 xmlns:xlink="http://www.w3.org/1999/xlink">
 <g id="Слой_x0020_1">
  <metadata id="CorelCorpID_0Corel-Layer"/>
  <path class="fil0" d="M-668336 20014l-3537 0 0 -274c0,-690 -494,-1230 -1125,-1230 -631,0 -1127,540 -1127,1230l0 274 -3537 0c-88,0 -160,76 -160,169l0 6734c0,93 72,169 160,169l9326 0c89,0 161,-76 161,-169l0 -6734c0,-93 -72,-169 -161,-169l0 0zm-5466 -274l0 0c0,-510 345,-894 804,-894 458,0 804,384 804,894l0 274 -1608 0 0 -274 0 0 0 0zm5305 611l0 0 0 1280c-1061,741 -2280,1191 -3537,1308l0 -399c0,-93 -71,-169 -160,-169l-1608 0c-88,0 -161,76 -161,169l0 402c-1256,-114 -2475,-563 -3538,-1304l0 -1287 9004 0 0 0 0 0zm-3858 2358l0 0 0 1008 -1287 0 0 -1008 1287 0zm-5146 4040l0 0 0 -4713c1073,705 2288,1134 3538,1244l0 607c0,93 73,168 161,168l1608 0c89,0 160,-75 160,-168l0 -609c1251,-113 2465,-545 3537,-1250l0 4721 -9004 0 0 0z"/>
  <g id="_1010405286208">
   <line class="fil1 str0" x1="679" y1="545" x2="166" y2= "138" />
   <line class="fil1 str0" x1="679" y1="545" x2="1193" y2= "138" />
  </g>
 </g>
</svg>
