<?xml version="1.0" encoding="UTF-8"?> <!-- Generator: Adobe Illustrator 21.1.0, SVG Export Plug-In . SVG Version: 6.00 Build 0) --> <svg xmlns="http://www.w3.org/2000/svg" xmlns:xlink="http://www.w3.org/1999/xlink" id="Layer_1" x="0px" y="0px" viewBox="0 0 491.9 385.7" style="enable-background:new 0 0 491.9 385.7;" xml:space="preserve"> <style type="text/css"> .st0{fill:url(#_Path_2_1_);} .st1{fill:url(#_Path__1_);} .st2{fill:url(#_Path_11_1_);} .st3{fill:url(#_Path_12_1_);} .st4{fill:url(#_Path_13_1_);} .st5{fill:url(#_Path_14_1_);} .st6{fill:#4B47CA;} .st7{fill:#FEFEFE;} .st8{fill:#3D3C49;} .st9{fill:url(#_Path_23_1_);} .st10{fill:#D4D4F9;} .st11{fill:#F0F0FF;} .st12{fill:#475ED1;} .st13{fill:#ACACFC;} .st14{fill:#6673D3;} .st15{fill:#5362AD;} .st16{fill:#787FD6;} .st17{fill:#CACAF9;} .st18{fill:#BCBCE2;} .st19{fill:#F7F7F9;} .st20{fill:#D8D8EF;} .st21{fill:url(#_Path_38_1_);} .st22{fill:#8C8CD1;} .st23{fill:#623DC4;} .st24{fill:#EFE1EE;} .st25{fill:#EF5656;} .st26{fill:url(#_Path_172_1_);} .st27{fill:url(#_Path_173_1_);} .st28{fill:url(#_Path_174_1_);} .st29{fill:url(#_Path_176_1_);} .st30{fill:url(#_Path_291_1_);} .st31{fill:#FFFFFF;} .st32{fill:url(#_Path_293_1_);} .st33{fill:url(#_Path_294_1_);} .st34{fill:#64646D;} .st35{fill:url(#_Path_296_1_);} .st36{fill:#98A4F9;} .st37{fill:#E9E9FF;} .st38{fill:url(#_Path_299_1_);} .st39{fill:url(#_Path_300_1_);} .st40{fill:#FFF8F8;} .st41{fill:url(#_Path_302_1_);} .st42{fill:#634744;} .st43{fill:#E2BCAF;} .st44{fill:#FCE6E6;} .st45{fill:url(#_Path_305_1_);} .st46{fill:url(#_Path_306_1_);} .st47{fill:url(#_Path_307_1_);} .st48{fill:url(#_Path_308_1_);} .st49{fill:url(#_Path_313_1_);} .st50{opacity:0.7;fill:url(#_Path_314_1_);enable-background:new ;} .st51{fill:#FAFAFF;} .st52{fill:#575FC4;} .st53{fill:url(#_Compound_Path_10_1_);} .st54{fill:url(#_Path_317_1_);} .st55{fill:url(#_Path_318_1_);} .st56{fill:url(#_Path_319_1_);} .st57{fill:url(#_Path_321_1_);} .st58{fill:url(#_Path_322_1_);} .st59{fill:url(#_Path_323_1_);} .st60{fill:#F2959B;} .st61{fill:#2F2E36;} .st62{fill:url(#_Path_328_1_);} .st63{fill:url(#_Path_329_1_);} .st64{fill:url(#_Path_330_1_);} .st65{fill:url(#_Path_331_1_);} .st66{fill:url(#_Path_332_1_);} .st67{fill:#76767C;} .st68{fill:#ADADD8;} </style> <g id="_Group_4"> <g> <linearGradient id="_Path_2_1_" gradientUnits="userSpaceOnUse" x1="272.9746" y1="159.8787" x2="309.5032" y2="131.8174" gradientTransform="matrix(1 0 0 -1 0 388)"> <stop offset="0" style="stop-color:#FFFFFF"></stop> <stop offset="1" style="stop-color:#000000"></stop> </linearGradient> <path id="_Path_2" class="st0" d="M288.2,220.4c-0.1-1.6-1.4-2.8-2.9-2.7c-0.7,0-1.4,0.3-1.9,0.8l0,0c-1.1,1.2-6.2,4.2-6.2,4.2 c2,7,4.4,14.1,6.7,18.2c4.2,7.4,11.5,20.4,13.5,26.1c0.4,1,1.2,1.7,2.2,2h0.1c0,0-1.5-22.4-7-30.9 C289.3,232.9,288.4,225.5,288.2,220.4z"></path> </g> </g> <g id="_Group_3"> <g> <linearGradient id="_Path__1_" gradientUnits="userSpaceOnUse" x1="333.1316" y1="175.8" x2="333.1316" y2="238.56" gradientTransform="matrix(1 0 0 -1 0 388)"> <stop offset="0" style="stop-color:#FFFFFF"></stop> <stop offset="1" style="stop-color:#000000"></stop> </linearGradient> <path id="_Path_" class="st1" d="M323.6,190c0,0-2.1-7.3,3.1-12.2s2.1-12.5-1.8-15s-0.8-10.6,5.2-12.9s6.3,2.4,6.3,2.4 s-11.8,0.6-2.3,8.9s10.2,10.6,8.1,18.1c-1.8,6.3-4.6,6.8-3.8,10c1,3.7-4.5,5-7,5.1S323.8,193.6,323.6,190z"></path> </g> </g> <title>php</title> <g id="_16"> <linearGradient id="_Path_11_1_" gradientUnits="userSpaceOnUse" x1="242.1101" y1="110.5196" x2="262.4101" y2="115.4696" gradientTransform="matrix(1 0 0 -1 0 388)"> <stop offset="0" style="stop-color:#453CD6"></stop> <stop offset="1" style="stop-color:#8490FF"></stop> </linearGradient> <path id="_Path_11" class="st2" d="M248.8,266.1c0,0-2.9,0.5-3.2,2.8s-1.8,2.9-2.6,4.7s-1.3,5.3-0.9,6.6s4.5,5,7.3,5.2 s5.4-2.6,7.6-3.8c2.2-1.2,5.3-0.5,8.1-2s11.1-5.8,11.9-8s1.2-4,0-5.4c-1.8-1.6-3.8-2.8-6.1-3.5c-1-0.1-8.7,3-11.3,2.3 s-10.4,1.1-10.4,1.1L248.8,266.1z"></path> <linearGradient id="_Path_12_1_" gradientUnits="userSpaceOnUse" x1="246.1601" y1="126.9814" x2="260.8201" y2="125.6914" gradientTransform="matrix(1 0 0 -1 0 388)"> <stop offset="0" style="stop-color:#EF8C93"></stop> <stop offset="1" style="stop-color:#FFB9B9"></stop> </linearGradient> <path id="_Path_12" class="st3" d="M250.2,252.2c0,0-0.9,11.5-2.1,14.2s2.1,5.1,5.9,5.5c3.8,0.3,6.1-3.2,6.1-3.2l1.5-16.5 L250.2,252.2z"></path> <linearGradient id="_Path_13_1_" gradientUnits="userSpaceOnUse" x1="250.3967" y1="168.7014" x2="273.8554" y2="166.6415" gradientTransform="matrix(1 0 0 -1 0 388)"> <stop offset="0" style="stop-color:#AFADEA"></stop> <stop offset="1" style="stop-color:#FFF7FA"></stop> </linearGradient> <path id="_Path_13" class="st4" d="M253.3,193.4c0,0-3.5,21.5-2.5,33.1c0.7,8.5-1.2,21-1.8,27c-0.2,1.8,1.1,3.3,2.9,3.5 c0.1,0,0.2,0,0.3,0l7.4-0.1c1.5,0,2.8-1,3.1-2.4c2.6-10.5,12.8-52,13.3-57.3c0.5-6.1,0-8.1,0-8.1l-10.5-6L253.3,193.4z"></path> <linearGradient id="_Path_14_1_" gradientUnits="userSpaceOnUse" x1="254.0801" y1="111.923" x2="248.0401" y2="112.0829" gradientTransform="matrix(1 0 0 -1 0 388)"> <stop offset="0" style="stop-color:#626270"></stop> <stop offset="1" style="stop-color:#484850"></stop> </linearGradient> <path id="_Path_14" class="st5" d="M277,271.5c0.6-1.3,0.8-2.7,0.6-4.1c-0.4,0.9-0.9,1.8-1.4,2.7c-1,1.5-11.3,7.1-13.3,7.8 s-5.9-0.1-8.1,1.5s-4.1,1.8-5.7,1.1c-1.4-0.6-5.2-3.9-6.5-5.1c-0.4,1.8-0.7,4-0.3,4.9c0.5,1.2,4.5,5,7.3,5.2s5.4-2.6,7.6-3.8 c2.2-1.2,5.3-0.5,8.1-2S276.3,273.7,277,271.5z"></path> <path id="_Path_15" class="st6" d="M249,270.2c0,0,4.2,4.1,8,3.1c3-0.8,4-1.8,4.6-3.1s-1.3-3.9-1.7-4S249,270.2,249,270.2z"></path> <path id="_Path_16" class="st7" d="M260.1,268.7l0.4-4.8c-1.7,1.3-4.2,2.8-6.8,2.4c-1.9-0.3-3.6-1.1-5-2.4 c-0.1,0.9-0.4,1.7-0.7,2.5c-1.2,2.7,2.1,5.1,5.9,5.5C257.8,272.2,260.1,268.7,260.1,268.7z"></path> <g id="_Group_15"> <path id="_Path_17" class="st7" d="M265.5,270.1l-3.6-2.9c-0.4-0.3-0.5-0.9-0.2-1.4l0,0c0.3-0.4,0.9-0.5,1.4-0.2l3.6,2.9 c0.4,0.3,0.5,0.9,0.2,1.4l0,0C266.6,270.4,266,270.4,265.5,270.1z"></path> </g> <g id="_Group_16"> <path id="_Path_18" class="st7" d="M269.4,268.9l-3.3-2.6c-0.4-0.3-0.5-0.9-0.2-1.2c0,0,0,0,0,0l0,0c0.3-0.4,0.9-0.5,1.2-0.2 c0,0,0,0,0,0l3.3,2.6c0.4,0.3,0.5,0.9,0.2,1.2c0,0,0,0,0,0l0,0C270.4,269.2,269.8,269.2,269.4,268.9 C269.4,268.9,269.4,268.9,269.4,268.9z"></path> </g> </g> <g id="_14"> <g id="_Group_17"> <path id="_Path_19" class="st8" d="M361.2,209.5c1.1,0,3.8,0.7,3.3,2.4l-29,99.3c-0.3,0.9-0.8,2.3-2.2,2.3H332 c-0.9,0-1.6-0.8-1.5-1.7c0-0.2,0.1-0.4,0.2-0.6l27.1-98.7c0.5-1.7,2.1-3,3.1-3L361.2,209.5z"></path> <path id="_Path_20" class="st8" d="M389,191.5c1.1-1.3,3.8-1.6,4.3-0.5l27.6,67.4c0.3,0.6,1.3,2.6-0.4,3.6l-0.9,0.5 c-0.8,0.4-2.6,0.4-3-0.6l-29.3-65.4c-0.5-1.1,0.3-3.5,1.4-4.7L389,191.5z"></path> </g> <g id="_Group_18"> <path id="_Path_21" class="st8" d="M232.7,134.1c1.1,0,3.8,0.7,3.3,2.4l-29,99.3c-0.3,0.9-0.8,2.3-2.2,2.3h-1.3 c-0.9,0-1.6-0.8-1.5-1.7c0-0.2,0.1-0.4,0.2-0.6l27.1-98.7c0.5-1.7,2.1-3,3.1-3L232.7,134.1z"></path> <path id="_Path_22" class="st8" d="M245.8,127.3c1.1-1.3,3.8-1.6,4.3-0.5l27.6,67.5c0.3,0.6,0.7,3.1-0.4,3.6l-0.9,0.5 c-0.8,0.4-2.6,0.4-3-0.6L244,132.5c-0.5-1.1,0.3-3.5,1.4-4.7L245.8,127.3z"></path> </g> <g id="_Group_19"> <linearGradient id="_Path_23_1_" gradientUnits="userSpaceOnUse" x1="325.45" y1="219.885" x2="329.89" y2="219.885" gradientTransform="matrix(1 0 0 -1 0 388)"> <stop offset="0" style="stop-color:#787FD6"></stop> <stop offset="1" style="stop-color:#A7B1FF"></stop> </linearGradient> <path id="_Path_23" class="st9" d="M408.5,186.2C408.5,186.2,408.5,186.1,408.5,186.2v-3.9l-3.4,1.3l-138.8-80 c-1.2-0.6-2.7-0.5-3.9,0.2L189,146.1l-5.6,0.3v3.6l0,0v0.1l0,0c0,0.4,0.3,0.8,0.7,1l141.5,81.6c1.2,0.6,2.7,0.5,3.9-0.2l78.2-45.2 C408.1,187.1,408.4,186.7,408.5,186.2L408.5,186.2L408.5,186.2z"></path> <path id="_Path_24" class="st10" d="M325.3,228.4l-141.5-81.6c-1-0.6-0.9-1.6,0.3-2.2l78.2-45.2c1.2-0.7,2.6-0.7,3.9-0.2 l141.5,81.6c1,0.6,0.9,1.6-0.3,2.2l-78.2,45.2C328,228.9,326.6,229,325.3,228.4z"></path> </g> </g> <g id="_12"> <g id="_Group_20"> <g id="_Group_21"> <g id="_Group_22"> <polygon id="_Path_25" class="st11" points="409,276 382,260 407.8,245.4 434.8,261.4 "></polygon> <polygon id="_Path_26" class="st12" points="382,260 382,269.8 409,285.7 409,276 "></polygon> <polygon id="_Path_27" class="st13" points="434.8,261.4 434.8,271.2 409,285.7 409,276 "></polygon> <polygon id="_Path_28" class="st13" points="407.9,248.3 407.9,258.1 396.1,264.9 387.5,259.8 "></polygon> <polygon id="_Path_29" class="st12" points="407.9,258.1 420.8,265.6 429.2,260.9 407.9,248.3 "></polygon> <polygon id="_Path_30" class="st14" points="407.9,258.1 407.9,271.8 396.1,264.9 "></polygon> <polygon id="_Path_31" class="st15" points="407.9,258.1 420.8,265.6 408.8,272.4 407.9,271.8 "></polygon> <polygon id="_Path_32" class="st16" points="384.5,271.3 388.5,302.2 409,314.4 409,285.7 "></polygon> <polygon id="_Path_33" class="st17" points="409,314.4 427.7,303.6 431.9,272.8 409,285.7 "></polygon> </g> <g id="_Group_23"> <path id="_Path_34" class="st18" d="M409,264.8l4.9,0.1c1,0,1.9,0.7,2.3,1.6l0.5,1.4l-7.8,4.4l-3.4-4.9L409,264.8z"></path> <path id="_Path_35" class="st19" d="M399.3,266.8l6.9-6.2c0.7-0.7,1.9-0.6,2.6,0.1c0.1,0.1,0.2,0.2,0.2,0.3l2.6,4.7 c0.3,0.6,0.1,1.3-0.4,1.7l-3.2,2.1l-6-1.2L399.3,266.8z"></path> <path id="_Path_36" class="st20" d="M401.1,267.8l5.8-0.5c1-0.1,1.8,0.6,1.9,1.6c0,0,0,0.1,0,0.1l0.1,3.4L401.1,267.8z"></path> </g> </g> <g id="_Group_24"> <polygon id="_Path_37" class="st11" points="382,264.7 382,263.6 409,279.6 434.8,264.3 434.8,265.4 409,280.6 408.7,280.5 "></polygon> </g> </g> </g> <g id="_11"> <g id="_Group_25"> <g id="_Group_26"> <linearGradient id="_Path_38_1_" gradientUnits="userSpaceOnUse" x1="302.5077" y1="218.5178" x2="299.6076" y2="218.6478" gradientTransform="matrix(1 0 0 -1 0 388)"> <stop offset="0" style="stop-color:#787FD6"></stop> <stop offset="1" style="stop-color:#575FC4"></stop> </linearGradient> <path id="_Path_38" class="st21" d="M323.6,174.1L323.6,174.1v-1.4l-6.5,1.1l-40.9-23.5c-0.5-0.2-1.1-0.2-1.5,0.1l-17.4,10.1 l-1.5-0.3v1.4c0,0,0,0,0,0.1l0,0c0,0.2,0.1,0.3,0.3,0.4l43.8,25.2c0.5,0.2,1.1,0.2,1.5-0.1l21.8-12.6 C323.4,174.6,323.6,174.4,323.6,174.1z"></path> <path id="_Path_39" class="st22" d="M299.9,185.9l-43.8-25.2c-0.4-0.2-0.4-0.6,0.1-0.9l21.8-12.6c0.5-0.3,1.1-0.3,1.5-0.1 l43.8,25.2c0.4,0.2,0.4,0.6-0.1,0.9l-21.8,12.6C301,186.1,300.4,186.1,299.9,185.9z"></path> <g id="_Group_27"> <g id="_Group_28"> <path id="_Path_40" class="st23" d="M274.8,152.8l-1.2-0.7c-0.3-0.2-0.3-0.5,0.1-0.7l0.5-0.3c0.4-0.2,0.8-0.2,1.2-0.1l1.2,0.7 c0.3,0.2,0.3,0.5-0.1,0.7l-0.5,0.3C275.7,152.9,275.2,152.9,274.8,152.8z"></path> <path id="_Path_41" class="st23" d="M277.9,154.5l-1.2-0.7c-0.3-0.2-0.3-0.5,0.1-0.7l0.5-0.3c0.4-0.2,0.8-0.2,1.2-0.1l1.2,0.7 c0.3,0.2,0.3,0.5-0.1,0.7l-0.5,0.3C278.7,154.7,278.3,154.7,277.9,154.5z"></path> <path id="_Path_42" class="st23" d="M281,156.3l-1.2-0.7c-0.3-0.2-0.3-0.5,0.1-0.7l0.5-0.3c0.4-0.2,0.8-0.2,1.2-0.1l1.2,0.7 c0.3,0.2,0.3,0.5-0.1,0.7l-0.5,0.3C281.8,156.5,281.4,156.5,281,156.3z"></path> <path id="_Path_43" class="st23" d="M284.1,158.1l-1.2-0.7c-0.3-0.2-0.3-0.5,0.1-0.7l0.5-0.3c0.4-0.2,0.8-0.2,1.2-0.1l1.2,0.7 c0.3,0.2,0.3,0.5-0.1,0.7l-0.5,0.3C284.9,158.3,284.5,158.3,284.1,158.1z"></path> <path id="_Path_44" class="st23" d="M287.2,159.9l-1.2-0.7c-0.3-0.2-0.3-0.5,0.1-0.7l0.5-0.3c0.4-0.2,0.8-0.2,1.2-0.1l1.2,0.7 c0.3,0.2,0.3,0.5-0.1,0.7l-0.5,0.3C288,160,287.6,160,287.2,159.9z"></path> <path id="_Path_45" class="st23" d="M290.2,161.6l-1.2-0.7c-0.3-0.2-0.3-0.5,0.1-0.7l0.5-0.3c0.4-0.2,0.8-0.2,1.2-0.1l1.2,0.7 c0.3,0.2,0.3,0.5-0.1,0.7l-0.5,0.3C291.1,161.8,290.6,161.8,290.2,161.6z"></path> <path id="_Path_46" class="st23" d="M293.3,163.4l-1.2-0.7c-0.3-0.2-0.3-0.5,0.1-0.7l0.5-0.3c0.4-0.2,0.8-0.2,1.2-0.1l1.2,0.7 c0.3,0.2,0.3,0.5-0.1,0.7l-0.5,0.3C294.2,163.6,293.7,163.6,293.3,163.4z"></path> <path id="_Path_47" class="st23" d="M296.4,165.2l-1.2-0.7c-0.3-0.2-0.3-0.5,0.1-0.7l0.5-0.3c0.4-0.2,0.8-0.2,1.2-0.1l1.2,0.7 c0.3,0.2,0.3,0.5-0.1,0.7l-0.5,0.3C297.3,165.4,296.8,165.4,296.4,165.2z"></path> <path id="_Path_48" class="st23" d="M299.5,167l-1.2-0.7c-0.3-0.2-0.3-0.5,0.1-0.7l0.5-0.3c0.4-0.2,0.8-0.2,1.2-0.1l1.2,0.7 c0.3,0.2,0.3,0.5-0.1,0.7l-0.5,0.3C300.4,167.2,299.9,167.2,299.5,167z"></path> <path id="_Path_49" class="st23" d="M302.6,168.8l-1.2-0.7c-0.3-0.2-0.3-0.5,0.1-0.7l0.5-0.3c0.4-0.2,0.8-0.2,1.2-0.1l1.2,0.7 c0.3,0.2,0.3,0.5-0.1,0.7l-0.5,0.3C303.5,168.9,303,168.9,302.6,168.8z"></path> <path id="_Path_50" class="st23" d="M305.8,170.6l-1.2-0.7c-0.3-0.2-0.3-0.5,0.1-0.7l0.5-0.3c0.4-0.2,0.8-0.2,1.2-0.1l1.2,0.7 c0.3,0.2,0.3,0.5-0.1,0.7l-0.5,0.3C306.6,170.8,306.2,170.8,305.8,170.6z"></path> <path id="_Path_51" class="st23" d="M308.9,172.4l-1.2-0.7c-0.3-0.2-0.3-0.5,0.1-0.7l0.5-0.3c0.4-0.2,0.8-0.2,1.2-0.1l1.2,0.7 c0.3,0.2,0.3,0.5-0.1,0.7l-0.5,0.3C309.7,172.5,309.3,172.5,308.9,172.4z"></path> <path id="_Path_52" class="st23" d="M312,174.1l-1.2-0.7c-0.3-0.2-0.3-0.5,0.1-0.7l0.5-0.3c0.4-0.2,0.8-0.2,1.2-0.1l1.2,0.7 c0.3,0.2,0.3,0.5-0.1,0.7l-0.5,0.3C312.8,174.3,312.4,174.3,312,174.1z"></path> <path id="_Path_53" class="st23" d="M315,175.9l-1.2-0.7c-0.3-0.2-0.3-0.5,0.1-0.7l0.5-0.3c0.4-0.2,0.8-0.2,1.2-0.1l1.2,0.7 c0.3,0.2,0.3,0.5-0.1,0.7l-0.5,0.3C315.9,176.1,315.4,176.1,315,175.9z"></path> <g id="_Group_29"> <path id="_Path_54" class="st23" d="M271.3,154.9l-1.3-0.8c-0.3-0.2-0.3-0.5,0.1-0.7l1.5-0.9c0.4-0.2,0.8-0.2,1.2-0.1l1.3,0.8 c0.3,0.2,0.3,0.5-0.1,0.7l-1.5,0.9C272.1,155,271.7,155,271.3,154.9z"></path> <path id="_Path_55" class="st23" d="M274.4,156.6l-1.3-0.8c-0.3-0.2-0.3-0.5,0.1-0.7l1.5-0.9c0.4-0.2,0.8-0.2,1.2-0.1l1.3,0.8 c0.3,0.2,0.3,0.5-0.1,0.7l-1.5,0.9C275.2,156.8,274.8,156.8,274.4,156.6z"></path> <path id="_Path_56" class="st23" d="M277.5,158.4l-1.3-0.8c-0.3-0.2-0.3-0.5,0.1-0.7l1.5-0.9c0.4-0.2,0.8-0.3,1.2-0.1l1.3,0.8 c0.3,0.2,0.3,0.5-0.1,0.7l-1.5,0.9C278.3,158.6,277.9,158.6,277.5,158.4z"></path> <path id="_Path_57" class="st23" d="M280.6,160.2l-1.3-0.8c-0.3-0.2-0.3-0.5,0.1-0.7l1.5-0.9c0.4-0.2,0.8-0.2,1.2-0.1l1.3,0.8 c0.3,0.2,0.3,0.5-0.1,0.7l-1.5,0.9C281.4,160.4,281,160.4,280.6,160.2z"></path> <path id="_Path_58" class="st23" d="M283.6,162l-1.3-0.8c-0.3-0.2-0.3-0.5,0.1-0.7l1.5-0.9c0.4-0.2,0.8-0.2,1.2-0.1l1.3,0.8 c0.3,0.2,0.3,0.5-0.1,0.7l-1.5,0.9C284.5,162.2,284,162.2,283.6,162z"></path> <path id="_Path_59" class="st23" d="M286.8,163.8l-1.3-0.8c-0.3-0.2-0.3-0.5,0.1-0.7l1.5-0.9c0.4-0.2,0.8-0.2,1.2-0.1l1.3,0.8 c0.3,0.2,0.3,0.5-0.1,0.7l-1.5,0.9C287.6,163.9,287.2,163.9,286.8,163.8z"></path> <path id="_Path_60" class="st23" d="M289.9,165.6l-1.3-0.8c-0.3-0.2-0.3-0.5,0.1-0.7l1.5-0.9c0.4-0.2,0.8-0.2,1.2-0.1l1.3,0.8 c0.3,0.2,0.3,0.5-0.1,0.7l-1.5,0.9C290.7,165.7,290.3,165.7,289.9,165.6z"></path> <path id="_Path_61" class="st23" d="M293,167.4l-1.3-0.8c-0.3-0.2-0.3-0.5,0.1-0.7l1.5-0.9c0.4-0.2,0.8-0.2,1.2-0.1l1.3,0.8 c0.3,0.2,0.3,0.5-0.1,0.7l-1.5,0.9C293.8,167.5,293.4,167.5,293,167.4z"></path> <path id="_Path_62" class="st23" d="M296.1,169.1l-1.3-0.8c-0.3-0.2-0.3-0.5,0.1-0.7l1.5-0.9c0.4-0.2,0.8-0.2,1.2-0.1l1.3,0.8 c0.3,0.2,0.3,0.5-0.1,0.7l-1.5,0.9C296.9,169.3,296.5,169.3,296.1,169.1z"></path> <path id="_Path_63" class="st23" d="M299.1,170.9l-1.3-0.8c-0.3-0.2-0.3-0.5,0.1-0.7l1.5-0.9c0.4-0.2,0.8-0.2,1.2-0.1l1.3,0.8 c0.3,0.2,0.3,0.5-0.1,0.7l-1.5,0.9C300,171.1,299.5,171.1,299.1,170.9z"></path> <path id="_Path_64" class="st23" d="M302.3,172.7L301,172c-0.3-0.2-0.3-0.5,0.1-0.7l1.5-0.9c0.4-0.2,0.8-0.2,1.2-0.1l1.3,0.8 c0.3,0.2,0.3,0.5-0.1,0.7l-1.5,0.9C303.1,172.9,302.7,172.9,302.3,172.7z"></path> <path id="_Path_65" class="st23" d="M305.4,174.5l-1.3-0.8c-0.3-0.2-0.3-0.5,0.1-0.7l1.5-0.9c0.4-0.2,0.8-0.2,1.2-0.1l1.3,0.8 c0.3,0.2,0.3,0.5-0.1,0.7l-1.5,0.9C306.2,174.6,305.8,174.7,305.4,174.5z"></path> <path id="_Path_66" class="st23" d="M308.5,176.3l-1.3-0.8c-0.3-0.2-0.3-0.5,0.1-0.7l1.5-0.9c0.4-0.2,0.8-0.2,1.2-0.1l1.3,0.8 c0.3,0.2,0.3,0.5-0.1,0.7l-1.5,0.9C309.3,176.4,308.8,176.4,308.5,176.3z"></path> <path id="_Path_67" class="st23" d="M311.6,178.1l-1.3-0.8c-0.3-0.2-0.3-0.5,0.1-0.7l1.5-0.9c0.4-0.2,0.8-0.2,1.2-0.1l1.3,0.8 c0.3,0.2,0.3,0.5-0.1,0.7l-1.5,0.9C312.4,178.2,312,178.2,311.6,178.1z"></path> </g> <g id="_Group_30"> <path id="_Path_68" class="st23" d="M267.7,157l-1.3-0.8c-0.3-0.2-0.3-0.5,0.1-0.7l1.5-0.9c0.4-0.2,0.8-0.2,1.2-0.1l1.3,0.8 c0.3,0.2,0.3,0.5-0.1,0.7l-1.5,0.9C268.5,157.2,268.1,157.2,267.7,157z"></path> <path id="_Path_69" class="st23" d="M270.8,158.7l-1.3-0.8c-0.3-0.2-0.3-0.5,0.1-0.7l1.5-0.9c0.4-0.2,0.8-0.2,1.2-0.1l1.3,0.8 c0.3,0.2,0.3,0.5-0.1,0.7l-1.5,0.9C271.6,158.9,271.2,158.9,270.8,158.7z"></path> <path id="_Path_70" class="st23" d="M273.9,160.5l-1.3-0.8c-0.3-0.2-0.3-0.5,0.1-0.7l1.5-0.9c0.4-0.2,0.8-0.2,1.2-0.1l1.3,0.8 c0.3,0.2,0.3,0.5-0.1,0.7l-1.5,0.9C274.8,160.7,274.3,160.7,273.9,160.5z"></path> <path id="_Path_71" class="st23" d="M277,162.3l-1.3-0.8c-0.3-0.2-0.3-0.5,0.1-0.7l1.5-0.9c0.4-0.2,0.8-0.2,1.2-0.1l1.3,0.8 c0.3,0.2,0.3,0.5-0.1,0.7l-1.5,0.9C277.8,162.5,277.4,162.5,277,162.3z"></path> <path id="_Path_72" class="st23" d="M280.1,164.1l-1.3-0.8c-0.3-0.2-0.3-0.5,0.1-0.7l1.5-0.9c0.4-0.2,0.8-0.2,1.2-0.1l1.3,0.8 c0.3,0.2,0.3,0.5-0.1,0.7l-1.5,0.9C280.9,164.3,280.5,164.3,280.1,164.1z"></path> <path id="_Path_73" class="st23" d="M283.2,165.9l-1.3-0.8c-0.3-0.2-0.3-0.5,0.1-0.7l1.5-0.9c0.4-0.2,0.8-0.2,1.2-0.1l1.3,0.8 c0.3,0.2,0.3,0.5-0.1,0.7l-1.5,0.9C284.1,166,283.6,166.1,283.2,165.9z"></path> <path id="_Path_74" class="st23" d="M286.3,167.7l-1.3-0.8c-0.3-0.2-0.3-0.5,0.1-0.7l1.5-0.9c0.4-0.2,0.8-0.2,1.2-0.1l1.3,0.8 c0.3,0.2,0.3,0.5-0.1,0.7l-1.5,0.9C287.1,167.8,286.7,167.8,286.3,167.7z"></path> <path id="_Path_75" class="st23" d="M289.4,169.5l-1.3-0.8c-0.3-0.2-0.3-0.5,0.1-0.7l1.5-0.9c0.4-0.2,0.8-0.2,1.2-0.1l1.3,0.8 c0.3,0.2,0.3,0.5-0.1,0.7l-1.5,0.9C290.3,169.6,289.8,169.6,289.4,169.5z"></path> <path id="_Path_76" class="st23" d="M292.5,171.2l-1.3-0.8c-0.3-0.2-0.3-0.5,0.1-0.7l1.5-0.9c0.4-0.2,0.8-0.2,1.2-0.1l1.3,0.8 c0.3,0.2,0.3,0.5-0.1,0.7l-1.5,0.9C293.3,171.4,292.9,171.4,292.5,171.2z"></path> <path id="_Path_77" class="st23" d="M295.6,173l-1.3-0.8c-0.3-0.2-0.3-0.5,0.1-0.7l1.5-0.9c0.4-0.2,0.8-0.2,1.2-0.1l1.3,0.8 c0.3,0.2,0.3,0.5-0.1,0.7l-1.5,0.9C296.4,173.2,296,173.2,295.6,173z"></path> <path id="_Path_78" class="st23" d="M298.7,174.8l-1.3-0.8c-0.3-0.2-0.3-0.5,0.1-0.7l1.5-0.9c0.4-0.2,0.8-0.2,1.2-0.1l1.3,0.8 c0.3,0.2,0.3,0.5-0.1,0.7l-1.5,0.9C299.6,175,299.1,175,298.7,174.8z"></path> <path id="_Path_79" class="st23" d="M301.8,176.6l-1.3-0.8c-0.3-0.2-0.3-0.5,0.1-0.7l1.5-0.9c0.4-0.2,0.8-0.2,1.2-0.1l1.3,0.8 c0.3,0.2,0.3,0.5-0.1,0.7l-1.5,0.9C302.6,176.8,302.2,176.8,301.8,176.6z"></path> <path id="_Path_80" class="st23" d="M304.9,178.4l-1.3-0.8c-0.3-0.2-0.3-0.5,0.1-0.7l1.5-0.9c0.4-0.2,0.8-0.2,1.2-0.1l1.3,0.8 c0.3,0.2,0.3,0.5-0.1,0.7l-1.5,0.9C305.7,178.5,305.3,178.5,304.9,178.4z"></path> <path id="_Path_81" class="st23" d="M308,180.2l-1.3-0.8c-0.3-0.2-0.3-0.5,0.1-0.7l1.5-0.9c0.4-0.2,0.8-0.2,1.2-0.1l1.3,0.8 c0.3,0.2,0.3,0.5-0.1,0.7l-1.5,0.9C308.8,180.3,308.4,180.3,308,180.2z"></path> </g> <g id="_Group_31"> <path id="_Path_82" class="st23" d="M267,160.8l-4.4-2.5c-0.3-0.2-0.3-0.5,0.1-0.7l1.5-0.9c0.4-0.2,0.8-0.2,1.2-0.1l4.4,2.5 c0.3,0.2,0.3,0.5-0.1,0.7l-1.5,0.9C267.8,161,267.4,161,267,160.8z"></path> <path id="_Path_83" class="st23" d="M270.2,162.6l-1.3-0.8c-0.3-0.2-0.3-0.5,0.1-0.7l1.5-0.9c0.4-0.2,0.8-0.2,1.2-0.1l1.3,0.8 c0.3,0.2,0.3,0.5-0.1,0.7l-1.5,0.9C271,162.8,270.6,162.8,270.2,162.6z"></path> <path id="_Path_84" class="st23" d="M273.3,164.4l-1.3-0.8c-0.3-0.2-0.3-0.5,0.1-0.7l1.5-0.9c0.4-0.2,0.8-0.2,1.2-0.1l1.3,0.8 c0.3,0.2,0.3,0.5-0.1,0.7l-1.5,0.9C274.1,164.6,273.7,164.6,273.3,164.4z"></path> <path id="_Path_85" class="st23" d="M276.4,166.2l-1.3-0.8c-0.3-0.2-0.3-0.5,0.1-0.7l1.5-0.9c0.4-0.2,0.8-0.2,1.2-0.1l1.3,0.8 c0.3,0.2,0.3,0.5-0.1,0.7l-1.5,0.9C277.2,166.4,276.8,166.4,276.4,166.2z"></path> <path id="_Path_86" class="st23" d="M279.5,168l-1.3-0.8c-0.3-0.2-0.3-0.5,0.1-0.7l1.5-0.9c0.4-0.2,0.8-0.2,1.2-0.1l1.3,0.8 c0.3,0.2,0.3,0.5-0.1,0.7l-1.5,0.9C280.3,168.2,279.9,168.2,279.5,168z"></path> <path id="_Path_87" class="st23" d="M282.6,169.8l-1.3-0.8c-0.3-0.2-0.3-0.5,0.1-0.7l1.5-0.9c0.4-0.2,0.8-0.2,1.2-0.1l1.3,0.8 c0.3,0.2,0.3,0.5-0.1,0.7l-1.5,0.9C283.4,169.9,283,169.9,282.6,169.8z"></path> <path id="_Path_88" class="st23" d="M285.7,171.6l-1.3-0.8c-0.3-0.2-0.3-0.5,0.1-0.7l1.5-0.9c0.4-0.2,0.8-0.2,1.2-0.1l1.3,0.8 c0.3,0.2,0.3,0.5-0.1,0.7l-1.5,0.9C286.5,171.7,286.1,171.7,285.7,171.6z"></path> <path id="_Path_89" class="st23" d="M288.8,173.3l-1.3-0.8c-0.3-0.2-0.3-0.5,0.1-0.7l1.5-0.9c0.4-0.2,0.8-0.2,1.2-0.1l1.3,0.8 c0.3,0.2,0.3,0.5-0.1,0.7l-1.5,0.9C289.6,173.5,289.2,173.5,288.8,173.3z"></path> <path id="_Path_90" class="st23" d="M291.9,175.1l-1.3-0.8c-0.3-0.2-0.3-0.5,0.1-0.7l1.5-0.9c0.4-0.2,0.8-0.2,1.2-0.1l1.3,0.8 c0.3,0.2,0.3,0.5-0.1,0.7l-1.5,0.9C292.7,175.3,292.3,175.3,291.9,175.1z"></path> <path id="_Path_91" class="st23" d="M295,176.9l-1.3-0.8c-0.3-0.2-0.3-0.5,0.1-0.7l1.5-0.9c0.4-0.2,0.8-0.2,1.2-0.1l1.3,0.8 c0.3,0.2,0.3,0.5-0.1,0.7l-1.5,0.9C295.8,177.1,295.4,177.1,295,176.9z"></path> <path id="_Path_92" class="st23" d="M298.1,178.7l-1.3-0.8c-0.3-0.2-0.3-0.5,0.1-0.7l1.5-0.9c0.4-0.2,0.8-0.2,1.2-0.1l1.3,0.8 c0.3,0.2,0.3,0.5-0.1,0.7l-1.5,0.9C298.9,178.9,298.5,178.9,298.1,178.7z"></path> <path id="_Path_93" class="st23" d="M301.2,180.5l-1.3-0.8c-0.3-0.2-0.3-0.5,0.1-0.7l1.5-0.9c0.4-0.2,0.8-0.2,1.2-0.1l1.3,0.8 c0.3,0.2,0.3,0.5-0.1,0.7l-1.5,0.9C302,180.6,301.6,180.7,301.2,180.5z"></path> <path id="_Path_94" class="st23" d="M300.7,184.4l-1.3-0.8c-0.3-0.2-0.3-0.5,0.1-0.7l5.1-3c0.4-0.2,0.8-0.2,1.2-0.1l1.3,0.8 c0.3,0.2,0.3,0.5-0.1,0.7l-5.1,3C301.5,184.5,301.1,184.5,300.7,184.4z"></path> </g> <g id="_Group_32"> <path id="_Path_95" class="st23" d="M260.4,161.1l-1.3-0.8c-0.3-0.2-0.3-0.5,0.1-0.7l1.5-0.9c0.4-0.2,0.8-0.2,1.2-0.1l1.3,0.8 c0.3,0.2,0.3,0.5-0.1,0.7l-1.5,0.9C261.2,161.3,260.8,161.3,260.4,161.1z"></path> <path id="_Path_96" class="st23" d="M263.5,162.9l-1.3-0.8c-0.3-0.2-0.3-0.5,0.1-0.7l1.5-0.9c0.4-0.2,0.8-0.2,1.2-0.1l1.3,0.8 c0.3,0.2,0.3,0.5-0.1,0.7l-1.5,0.9C264.3,163.1,263.9,163.1,263.5,162.9z"></path> <path id="_Path_97" class="st23" d="M266.6,164.7l-1.3-0.8c-0.3-0.2-0.3-0.5,0.1-0.7l1.5-0.9c0.4-0.2,0.8-0.2,1.2-0.1l1.3,0.8 c0.3,0.2,0.3,0.5-0.1,0.7l-1.5,0.9C267.4,164.9,267,164.9,266.6,164.7z"></path> <path id="_Path_98" class="st23" d="M269.7,166.5l-1.3-0.8c-0.3-0.2-0.3-0.5,0.1-0.7l1.5-0.9c0.4-0.2,0.8-0.2,1.2-0.1l1.3,0.8 c0.3,0.2,0.3,0.5-0.1,0.7l-1.5,0.9C270.5,166.7,270.1,166.7,269.7,166.5z"></path> <path id="_Path_99" class="st23" d="M282.1,173.6l-10.6-6.1c-0.3-0.2-0.3-0.5,0.1-0.7l1.5-0.8c0.4-0.2,0.8-0.2,1.2-0.1 l10.7,6.1c0.3,0.2,0.3,0.5-0.1,0.7l-1.5,0.9C282.9,173.8,282.5,173.8,282.1,173.6z"></path> <path id="_Path_100" class="st23" d="M285.2,175.4l-1.3-0.8c-0.3-0.2-0.3-0.5,0.1-0.7l1.5-0.9c0.4-0.2,0.8-0.2,1.2-0.1 l1.3,0.8c0.3,0.2,0.3,0.5-0.1,0.7l-1.5,0.9C286,175.6,285.6,175.6,285.2,175.4z"></path> <path id="_Path_101" class="st23" d="M288.3,177.2l-1.3-0.8c-0.3-0.2-0.3-0.5,0.1-0.7l1.5-0.9c0.4-0.2,0.8-0.2,1.2-0.1 l1.3,0.8c0.3,0.2,0.3,0.5-0.1,0.7l-1.5,0.9C289.1,177.4,288.7,177.4,288.3,177.2z"></path> <path id="_Path_102" class="st23" d="M291.4,179l-1.3-0.8c-0.3-0.2-0.3-0.5,0.1-0.7l1.5-0.9c0.4-0.2,0.8-0.2,1.2-0.1l1.3,0.8 c0.3,0.2,0.3,0.5-0.1,0.7l-1.5,0.9C292.2,179.2,291.8,179.2,291.4,179z"></path> <path id="_Path_103" class="st23" d="M294.5,180.8l-1.3-0.8c-0.3-0.2-0.3-0.5,0.1-0.7l1.5-0.9c0.4-0.2,0.8-0.2,1.2-0.1 l1.3,0.8c0.3,0.2,0.3,0.5-0.1,0.7l-1.5,0.9C295.3,181,294.9,181,294.5,180.8z"></path> <path id="_Path_104" class="st23" d="M297.5,182.6l-1.3-0.8c-0.3-0.2-0.3-0.5,0.1-0.7l1.5-0.9c0.4-0.2,0.8-0.2,1.2-0.1 l1.3,0.8c0.3,0.2,0.3,0.5-0.1,0.7l-1.5,0.9C298.4,182.7,297.9,182.7,297.5,182.6z"></path> </g> </g> <g id="_Group_33"> <path id="_Path_105" class="st24" d="M274.8,152.3l-1.2-0.7c-0.3-0.2-0.3-0.5,0.1-0.7l0.5-0.3c0.4-0.2,0.8-0.2,1.2-0.1l1.2,0.7 c0.3,0.2,0.3,0.5-0.1,0.7l-0.5,0.3C275.6,152.4,275.2,152.4,274.8,152.3z"></path> <path id="_Path_106" class="st24" d="M277.9,154l-1.2-0.7c-0.3-0.2-0.3-0.5,0.1-0.7l0.5-0.3c0.4-0.2,0.8-0.2,1.2-0.1l1.2,0.7 c0.3,0.2,0.3,0.5-0.1,0.7l-0.5,0.3C278.7,154.2,278.2,154.2,277.9,154z"></path> <path id="_Path_107" class="st24" d="M280.9,155.8l-1.2-0.7c-0.3-0.2-0.3-0.5,0.1-0.7l0.5-0.3c0.4-0.2,0.8-0.2,1.2-0.1l1.2,0.7 c0.3,0.2,0.3,0.5-0.1,0.7l-0.5,0.3C281.8,156,281.3,156,280.9,155.8z"></path> <path id="_Path_108" class="st24" d="M284,157.6l-1.2-0.7c-0.3-0.2-0.3-0.5,0.1-0.7l0.5-0.3c0.4-0.2,0.8-0.2,1.2-0.1l1.2,0.7 c0.3,0.2,0.3,0.5-0.1,0.7l-0.5,0.3C284.8,157.8,284.4,157.8,284,157.6z"></path> <path id="_Path_109" class="st24" d="M287.1,159.4l-1.2-0.7c-0.3-0.2-0.3-0.5,0.1-0.7l0.5-0.3c0.4-0.2,0.8-0.2,1.2-0.1l1.2,0.7 c0.3,0.2,0.3,0.5-0.1,0.7l-0.5,0.3C288,159.5,287.5,159.6,287.1,159.4z"></path> <path id="_Path_110" class="st24" d="M290.2,161.2l-1.2-0.7c-0.3-0.2-0.3-0.5,0.1-0.7l0.5-0.3c0.4-0.2,0.8-0.2,1.2-0.1l1.2,0.7 c0.3,0.2,0.3,0.5-0.1,0.7l-0.5,0.3C291,161.3,290.6,161.3,290.2,161.2z"></path> <path id="_Path_111" class="st24" d="M293.3,162.9l-1.2-0.7c-0.3-0.2-0.3-0.5,0.1-0.7l0.5-0.3c0.4-0.2,0.8-0.2,1.2-0.1l1.2,0.7 c0.3,0.2,0.3,0.5-0.1,0.7l-0.5,0.3C294.1,163.1,293.7,163.1,293.3,162.9z"></path> <path id="_Path_112" class="st24" d="M296.4,164.7l-1.2-0.7c-0.3-0.2-0.3-0.5,0.1-0.7l0.5-0.3c0.4-0.2,0.8-0.2,1.2-0.1l1.2,0.7 c0.3,0.2,0.3,0.5-0.1,0.7l-0.5,0.3C297.2,164.9,296.8,164.9,296.4,164.7z"></path> <path id="_Path_113" class="st24" d="M299.5,166.5l-1.2-0.7c-0.3-0.2-0.3-0.5,0.1-0.7l0.5-0.3c0.4-0.2,0.8-0.2,1.2-0.1l1.2,0.7 c0.3,0.2,0.3,0.5-0.1,0.7l-0.5,0.3C300.3,166.7,299.9,166.7,299.5,166.5z"></path> <path id="_Path_114" class="st24" d="M302.5,168.3l-1.2-0.7c-0.3-0.2-0.3-0.5,0.1-0.7l0.5-0.3c0.4-0.2,0.8-0.2,1.2-0.1l1.2,0.7 c0.3,0.2,0.3,0.5-0.1,0.7l-0.5,0.3C303.4,168.4,302.9,168.4,302.5,168.3z"></path> <path id="_Path_115" class="st24" d="M305.7,170.1l-1.2-0.7c-0.3-0.2-0.3-0.5,0.1-0.7l0.5-0.3c0.4-0.2,0.8-0.2,1.2-0.1l1.2,0.7 c0.3,0.2,0.3,0.5-0.1,0.7l-0.5,0.3C306.6,170.3,306.1,170.3,305.7,170.1z"></path> <path id="_Path_116" class="st24" d="M308.8,171.9l-1.2-0.7c-0.3-0.2-0.3-0.5,0.1-0.7l0.5-0.3c0.4-0.2,0.8-0.2,1.2-0.1l1.2,0.7 c0.3,0.2,0.3,0.5-0.1,0.7l-0.5,0.3C309.7,172,309.2,172.1,308.8,171.9z"></path> <path id="_Path_117" class="st24" d="M311.9,173.7l-1.2-0.7c-0.3-0.2-0.3-0.5,0.1-0.7l0.5-0.3c0.4-0.2,0.8-0.2,1.2-0.1l1.2,0.7 c0.3,0.2,0.3,0.5-0.1,0.7l-0.5,0.3C312.8,173.8,312.3,173.8,311.9,173.7z"></path> <path id="_Path_118" class="st24" d="M315,175.4l-1.2-0.7c-0.3-0.2-0.3-0.5,0.1-0.7l0.5-0.3c0.4-0.2,0.8-0.2,1.2-0.1l1.2,0.7 c0.3,0.2,0.3,0.5-0.1,0.7l-0.5,0.3C315.8,175.6,315.4,175.6,315,175.4z"></path> <g id="_Group_34"> <path id="_Path_119" class="st24" d="M271.2,154.4l-1.3-0.8c-0.3-0.2-0.3-0.5,0.1-0.7l1.5-0.9c0.4-0.2,0.8-0.2,1.2-0.1 l1.3,0.8c0.3,0.2,0.3,0.5-0.1,0.7l-1.5,0.9C272.1,154.5,271.6,154.5,271.2,154.4z"></path> <path id="_Path_120" class="st24" d="M274.3,156.1l-1.3-0.8c-0.3-0.2-0.3-0.5,0.1-0.7l1.5-0.9c0.4-0.2,0.8-0.2,1.2-0.1 l1.3,0.8c0.3,0.2,0.3,0.5-0.1,0.7l-1.5,0.9C275.1,156.3,274.7,156.3,274.3,156.1z"></path> <path id="_Path_121" class="st24" d="M277.4,157.9l-1.3-0.8c-0.3-0.2-0.3-0.5,0.1-0.7l1.5-0.9c0.4-0.2,0.8-0.2,1.2-0.1 l1.3,0.8c0.3,0.2,0.3,0.5-0.1,0.7l-1.5,0.9C278.3,158.1,277.8,158.1,277.4,157.9z"></path> <path id="_Path_122" class="st24" d="M280.5,159.7l-1.3-0.8c-0.3-0.2-0.3-0.5,0.1-0.7l1.5-0.9c0.4-0.2,0.8-0.2,1.2-0.1 l1.3,0.8c0.3,0.2,0.3,0.5-0.1,0.7l-1.5,0.9C281.4,159.9,280.9,159.9,280.5,159.7z"></path> <path id="_Path_123" class="st24" d="M283.6,161.5l-1.3-0.8c-0.3-0.2-0.3-0.5,0.1-0.7l1.5-0.9c0.4-0.2,0.8-0.2,1.2-0.1 l1.3,0.8c0.3,0.2,0.3,0.5-0.1,0.7l-1.5,0.9C284.4,161.6,284,161.7,283.6,161.5z"></path> <path id="_Path_124" class="st24" d="M286.7,163.3l-1.3-0.8c-0.3-0.2-0.3-0.5,0.1-0.7l1.5-0.8c0.4-0.2,0.8-0.2,1.2-0.1 l1.3,0.8c0.3,0.2,0.3,0.5-0.1,0.7l-1.5,0.9C287.5,163.5,287.1,163.5,286.7,163.3z"></path> <path id="_Path_125" class="st24" d="M289.8,165.1l-1.3-0.8c-0.3-0.2-0.3-0.5,0.1-0.7l1.5-0.9c0.4-0.2,0.8-0.2,1.2-0.1 l1.3,0.8c0.3,0.2,0.3,0.5-0.1,0.7L291,165C290.6,165.2,290.2,165.2,289.8,165.1z"></path> <path id="_Path_126" class="st24" d="M292.9,166.9l-1.3-0.8c-0.3-0.2-0.3-0.5,0.1-0.7l1.5-0.9c0.4-0.2,0.8-0.2,1.2-0.1 l1.3,0.8c0.3,0.2,0.3,0.5-0.1,0.7l-1.5,0.9C293.8,167,293.3,167,292.9,166.9z"></path> <path id="_Path_127" class="st24" d="M296,168.6l-1.3-0.8c-0.3-0.2-0.3-0.5,0.1-0.7l1.5-0.9c0.4-0.2,0.8-0.2,1.2-0.1l1.3,0.8 c0.3,0.2,0.3,0.5-0.1,0.7l-1.5,0.9C296.8,168.8,296.4,168.8,296,168.6z"></path> <path id="_Path_128" class="st24" d="M299.1,170.4l-1.3-0.8c-0.3-0.2-0.3-0.5,0.1-0.7l1.5-0.9c0.4-0.2,0.8-0.2,1.2-0.1 l1.3,0.8c0.3,0.2,0.3,0.5-0.1,0.7l-1.5,0.9C299.9,170.6,299.5,170.6,299.1,170.4z"></path> <path id="_Path_129" class="st24" d="M302.2,172.2l-1.3-0.8c-0.3-0.2-0.3-0.5,0.1-0.7l1.5-0.9c0.4-0.2,0.8-0.2,1.2-0.1 l1.3,0.8c0.3,0.2,0.3,0.5-0.1,0.7l-1.5,0.9C303.1,172.4,302.6,172.4,302.2,172.2z"></path> <path id="_Path_130" class="st24" d="M305.3,174l-1.3-0.8c-0.3-0.2-0.3-0.5,0.1-0.7l1.5-0.9c0.4-0.2,0.8-0.2,1.2-0.1l1.3,0.8 c0.3,0.2,0.3,0.5-0.1,0.7l-1.5,0.9C306.1,174.2,305.7,174.2,305.3,174z"></path> <path id="_Path_131" class="st24" d="M308.4,175.8l-1.3-0.8c-0.3-0.2-0.3-0.5,0.1-0.7l1.5-0.9c0.4-0.2,0.8-0.2,1.2-0.1 l1.3,0.8c0.3,0.2,0.3,0.5-0.1,0.7l-1.5,0.9C309.2,175.9,308.8,175.9,308.4,175.8z"></path> <path id="_Path_132" class="st24" d="M311.5,177.6l-1.3-0.8c-0.3-0.2-0.3-0.5,0.1-0.7l1.5-0.9c0.4-0.2,0.8-0.2,1.2-0.1 l1.3,0.8c0.3,0.2,0.3,0.5-0.1,0.7l-1.5,0.9C312.4,177.7,311.9,177.7,311.5,177.6z"></path> </g> <g id="_Group_35"> <path id="_Path_133" class="st24" d="M267.6,156.5l-1.3-0.8c-0.3-0.2-0.3-0.5,0.1-0.7l1.5-0.9c0.4-0.2,0.8-0.2,1.2-0.1 l1.3,0.8c0.3,0.2,0.3,0.5-0.1,0.7l-1.5,0.9C268.5,156.6,268,156.6,267.6,156.5z"></path> <path id="_Path_134" class="st24" d="M270.7,158.2l-1.3-0.8c-0.3-0.2-0.3-0.5,0.1-0.7l1.5-0.9c0.4-0.2,0.8-0.2,1.2-0.1 l1.3,0.8c0.3,0.2,0.3,0.5-0.1,0.7l-1.5,0.9C271.6,158.4,271.1,158.4,270.7,158.2z"></path> <path id="_Path_135" class="st24" d="M273.9,160l-1.3-0.8c-0.3-0.2-0.3-0.5,0.1-0.7l1.5-0.9c0.4-0.2,0.8-0.2,1.2-0.1l1.3,0.8 c0.3,0.2,0.3,0.5-0.1,0.7l-1.5,0.9C274.7,160.2,274.3,160.2,273.9,160z"></path> <path id="_Path_136" class="st24" d="M276.9,161.8l-1.3-0.8c-0.3-0.2-0.3-0.5,0.1-0.7l1.5-0.9c0.4-0.2,0.8-0.2,1.2-0.1 l1.3,0.8c0.3,0.2,0.3,0.5-0.1,0.7l-1.5,0.9C277.8,162,277.3,162,276.9,161.8z"></path> <path id="_Path_137" class="st24" d="M280,163.6l-1.3-0.8c-0.3-0.2-0.3-0.5,0.1-0.7l1.5-0.9c0.4-0.2,0.8-0.2,1.2-0.1l1.3,0.8 c0.3,0.2,0.3,0.5-0.1,0.7l-1.5,0.9C280.8,163.8,280.4,163.8,280,163.6z"></path> <path id="_Path_138" class="st24" d="M283.1,165.4l-1.3-0.8c-0.3-0.2-0.3-0.5,0.1-0.7l1.5-0.9c0.4-0.2,0.8-0.2,1.2-0.1 l1.3,0.8c0.3,0.2,0.3,0.5-0.1,0.7l-1.5,0.9C284,165.6,283.5,165.6,283.1,165.4z"></path> <path id="_Path_139" class="st24" d="M286.2,167.2l-1.3-0.8c-0.3-0.2-0.3-0.5,0.1-0.7l1.5-0.9c0.4-0.2,0.8-0.2,1.2-0.1 l1.3,0.8c0.3,0.2,0.3,0.5-0.1,0.7l-1.5,0.9C287.1,167.3,286.6,167.3,286.2,167.2z"></path> <path id="_Path_140" class="st24" d="M289.4,169l-1.3-0.8c-0.3-0.2-0.3-0.5,0.1-0.7l1.5-0.9c0.4-0.2,0.8-0.2,1.2-0.1l1.3,0.8 c0.3,0.2,0.3,0.5-0.1,0.7l-1.5,0.9C290.2,169.2,289.8,169.2,289.4,169z"></path> <path id="_Path_141" class="st24" d="M292.5,170.8l-1.3-0.8c-0.3-0.2-0.3-0.5,0.1-0.7l1.5-0.9c0.4-0.2,0.8-0.2,1.2-0.1 l1.3,0.8c0.3,0.2,0.3,0.5-0.1,0.7l-1.5,0.9C293.3,170.9,292.8,170.9,292.5,170.8z"></path> <path id="_Path_142" class="st24" d="M295.5,172.5l-1.3-0.8c-0.3-0.2-0.3-0.5,0.1-0.7l1.5-0.9c0.4-0.2,0.8-0.2,1.2-0.1 l1.3,0.8c0.3,0.2,0.3,0.5-0.1,0.7l-1.5,0.9C296.4,172.7,295.9,172.7,295.5,172.5z"></path> <path id="_Path_143" class="st24" d="M298.6,174.3l-1.3-0.8c-0.3-0.2-0.3-0.5,0.1-0.7l1.5-0.9c0.4-0.2,0.8-0.2,1.2-0.1 l1.3,0.8c0.3,0.2,0.3,0.5-0.1,0.7l-1.5,0.9C299.5,174.5,299,174.5,298.6,174.3z"></path> <path id="_Path_144" class="st24" d="M301.7,176.1l-1.3-0.8c-0.3-0.2-0.3-0.5,0.1-0.7l1.5-0.9c0.4-0.2,0.8-0.2,1.2-0.1 l1.3,0.8c0.3,0.2,0.3,0.5-0.1,0.7L303,176C302.6,176.2,302.2,176.3,301.7,176.1z"></path> <path id="_Path_145" class="st24" d="M304.8,177.9l-1.3-0.8c-0.3-0.2-0.3-0.5,0.1-0.7l1.5-0.9c0.4-0.2,0.8-0.2,1.2-0.1 l1.3,0.8c0.3,0.2,0.3,0.5-0.1,0.7l-1.5,0.9C305.7,178,305.2,178.1,304.8,177.9z"></path> <path id="_Path_146" class="st24" d="M308,179.7l-1.3-0.8c-0.3-0.2-0.3-0.5,0.1-0.7l1.5-0.9c0.4-0.2,0.8-0.2,1.2-0.1l1.3,0.8 c0.3,0.2,0.3,0.5-0.1,0.7l-1.5,0.9C308.8,179.8,308.3,179.9,308,179.7z"></path> </g> <g id="_Group_36"> <path id="_Path_147" class="st24" d="M267,160.3l-4.4-2.5c-0.3-0.2-0.3-0.5,0.1-0.7l1.5-0.9c0.4-0.2,0.8-0.2,1.2-0.1l4.4,2.5 c0.3,0.2,0.3,0.5-0.1,0.7l-1.5,0.9C267.8,160.5,267.4,160.5,267,160.3z"></path> <path id="_Path_148" class="st24" d="M270.1,162.1l-1.3-0.8c-0.3-0.2-0.3-0.5,0.1-0.7l1.5-0.9c0.4-0.2,0.8-0.2,1.2-0.1 l1.3,0.8c0.3,0.2,0.3,0.5-0.1,0.7l-1.5,0.9C271,162.3,270.5,162.3,270.1,162.1z"></path> <path id="_Path_149" class="st24" d="M273.2,163.9l-1.3-0.8c-0.3-0.2-0.3-0.5,0.1-0.7l1.5-0.9c0.4-0.2,0.8-0.2,1.2-0.1 l1.3,0.8c0.3,0.2,0.3,0.5-0.1,0.7l-1.5,0.9C274.1,164.1,273.6,164.1,273.2,163.9z"></path> <path id="_Path_150" class="st24" d="M276.3,165.7L275,165c-0.3-0.2-0.3-0.5,0.1-0.7l1.5-0.9c0.4-0.2,0.8-0.2,1.2-0.1l1.3,0.8 c0.3,0.2,0.3,0.5-0.1,0.7l-1.5,0.9C277.1,165.9,276.7,165.9,276.3,165.7z"></path> <path id="_Path_151" class="st24" d="M279.4,167.5l-1.3-0.8c-0.3-0.2-0.3-0.5,0.1-0.7l1.5-0.9c0.4-0.2,0.8-0.2,1.2-0.1 l1.3,0.8c0.3,0.2,0.3,0.5-0.1,0.7l-1.5,0.9C280.3,167.7,279.8,167.7,279.4,167.5z"></path> <path id="_Path_152" class="st24" d="M282.5,169.3l-1.3-0.8c-0.3-0.2-0.3-0.5,0.1-0.7l1.5-0.9c0.4-0.2,0.8-0.2,1.2-0.1 l1.3,0.8c0.3,0.2,0.3,0.5-0.1,0.7l-1.5,0.9C283.4,169.4,282.9,169.5,282.5,169.3z"></path> <path id="_Path_153" class="st24" d="M285.6,171.1l-1.3-0.8c-0.3-0.2-0.3-0.5,0.1-0.7l1.5-0.9c0.4-0.2,0.8-0.2,1.2-0.1 l1.3,0.8c0.3,0.2,0.3,0.5-0.1,0.7l-1.5,0.9C286.5,171.2,286,171.2,285.6,171.1z"></path> <path id="_Path_154" class="st24" d="M288.7,172.9l-1.3-0.8c-0.3-0.2-0.3-0.5,0.1-0.7l1.5-0.9c0.4-0.2,0.8-0.2,1.2-0.1 l1.3,0.8c0.3,0.2,0.3,0.5-0.1,0.7l-1.5,0.9C289.6,173,289.1,173,288.7,172.9z"></path> <path id="_Path_155" class="st24" d="M291.8,174.6l-1.3-0.8c-0.3-0.2-0.3-0.5,0.1-0.7l1.5-0.9c0.4-0.2,0.8-0.2,1.2-0.1 l1.3,0.8c0.3,0.2,0.3,0.5-0.1,0.7l-1.5,0.9C292.7,174.8,292.2,174.8,291.8,174.6z"></path> <path id="_Path_156" class="st24" d="M294.9,176.4l-1.3-0.8c-0.3-0.2-0.3-0.5,0.1-0.7l1.5-0.9c0.4-0.2,0.8-0.2,1.2-0.1 l1.3,0.8c0.3,0.2,0.3,0.5-0.1,0.7l-1.5,0.9C295.8,176.6,295.3,176.6,294.9,176.4z"></path> <path id="_Path_157" class="st24" d="M298,178.2l-1.3-0.8c-0.3-0.2-0.3-0.5,0.1-0.7l1.5-0.9c0.4-0.2,0.8-0.2,1.2-0.1l1.3,0.8 c0.3,0.2,0.3,0.5-0.1,0.7l-1.5,0.9C298.8,178.4,298.4,178.4,298,178.2z"></path> <path id="_Path_158" class="st24" d="M301.1,180l-1.3-0.8c-0.3-0.2-0.3-0.5,0.1-0.7l1.5-0.9c0.4-0.2,0.8-0.2,1.2-0.1l1.3,0.8 c0.3,0.2,0.3,0.5-0.1,0.7l-1.5,0.9C302,180.2,301.5,180.2,301.1,180z"></path> <path id="_Path_159" class="st24" d="M300.6,183.9l-1.3-0.8c-0.3-0.2-0.3-0.5,0.1-0.7l5.1-3c0.4-0.2,0.8-0.2,1.2-0.1l1.3,0.8 c0.3,0.2,0.3,0.5-0.1,0.7l-5.1,3C301.5,184,301,184,300.6,183.9z"></path> </g> <g id="_Group_37"> <path id="_Path_160" class="st24" d="M260.3,160.7l-1.3-0.8c-0.3-0.2-0.3-0.5,0.1-0.7l1.5-0.9c0.4-0.2,0.8-0.2,1.2-0.1 l1.3,0.8c0.3,0.2,0.3,0.5-0.1,0.7l-1.5,0.9C261.2,160.8,260.7,160.8,260.3,160.7z"></path> <path id="_Path_161" class="st24" d="M263.4,162.4l-1.3-0.8c-0.3-0.2-0.3-0.5,0.1-0.7l1.5-0.9c0.4-0.2,0.8-0.2,1.2-0.1 l1.3,0.8c0.3,0.2,0.3,0.5-0.1,0.7l-1.5,0.9C264.3,162.6,263.8,162.6,263.4,162.4z"></path> <path id="_Path_162" class="st24" d="M266.5,164.2l-1.3-0.8c-0.3-0.2-0.3-0.5,0.1-0.7l1.5-0.9c0.4-0.2,0.8-0.2,1.2-0.1 l1.3,0.8c0.3,0.2,0.3,0.5-0.1,0.7l-1.5,0.9C267.4,164.4,266.9,164.4,266.5,164.2z"></path> <path id="_Path_163" class="st24" d="M269.6,166l-1.3-0.8c-0.3-0.2-0.3-0.5,0.1-0.7l1.5-0.9c0.4-0.2,0.8-0.2,1.2-0.1l1.3,0.8 c0.3,0.2,0.3,0.5-0.1,0.7l-1.5,0.9C270.5,166.2,270,166.2,269.6,166z"></path> <path id="_Path_164" class="st24" d="M282,173.2l-10.6-6.2c-0.3-0.2-0.3-0.5,0.1-0.7l1.5-0.9c0.4-0.2,0.8-0.2,1.2-0.1 l10.6,6.1c0.3,0.2,0.3,0.5-0.1,0.7l-1.5,0.9C282.9,173.3,282.4,173.3,282,173.2z"></path> <path id="_Path_165" class="st24" d="M285.1,174.9l-1.3-0.8c-0.3-0.2-0.3-0.5,0.1-0.7l1.5-0.9c0.4-0.2,0.8-0.2,1.2-0.1 l1.3,0.8c0.3,0.2,0.3,0.5-0.1,0.7l-1.5,0.9C286,175.1,285.5,175.1,285.1,174.9z"></path> <path id="_Path_166" class="st24" d="M288.2,176.7l-1.3-0.8c-0.3-0.2-0.3-0.5,0.1-0.7l1.5-0.9c0.4-0.2,0.8-0.2,1.2-0.1 l1.3,0.8c0.3,0.2,0.3,0.5-0.1,0.7l-1.5,0.9C289,176.9,288.6,176.9,288.2,176.7z"></path> <path id="_Path_167" class="st24" d="M291.3,178.5l-1.3-0.8c-0.3-0.2-0.3-0.5,0.1-0.7l1.5-0.9c0.4-0.2,0.8-0.2,1.2-0.1 l1.3,0.8c0.3,0.2,0.3,0.5-0.1,0.7l-1.5,0.9C292.2,178.7,291.7,178.7,291.3,178.5z"></path> <path id="_Path_168" class="st24" d="M294.4,180.3l-1.3-0.8c-0.3-0.2-0.3-0.5,0.1-0.7l1.5-0.9c0.4-0.2,0.8-0.2,1.2-0.1 l1.3,0.8c0.3,0.2,0.3,0.5-0.1,0.7l-1.5,0.9C295.3,180.5,294.8,180.5,294.4,180.3z"></path> <path id="_Path_169" class="st24" d="M297.5,182.1l-1.3-0.8c-0.3-0.2-0.3-0.5,0.1-0.7l1.5-0.9c0.4-0.2,0.8-0.2,1.2-0.1 l1.3,0.8c0.3,0.2,0.3,0.5-0.1,0.7l-1.5,0.9C298.3,182.2,297.9,182.2,297.5,182.1z"></path> </g> </g> </g> </g> <ellipse id="_Path_170" class="st10" cx="279.7" cy="149.7" rx="1.1" ry="0.7"></ellipse> </g> <ellipse id="_Path_171" class="st25" cx="281.7" cy="150.9" rx="1.1" ry="0.7"></ellipse> </g> <g id="_4"> <g id="_Group_38"> <g id="_Group_39"> <linearGradient id="_Path_172_1_" gradientUnits="userSpaceOnUse" x1="308.13" y1="238.5792" x2="305.14" y2="238.5792" gradientTransform="matrix(1 0 0 -1 0 388)"> <stop offset="0" style="stop-color:#6366D6"></stop> <stop offset="1" style="stop-color:#919BFF"></stop> </linearGradient> <path id="_Path_172" class="st26" d="M306.3,139.1v7.9c0,0.6-0.2,2.3-1.3,2.9c-0.6,0.4-3,1.8-4.9,2.9l-2.1,0.3v1.4l0,0 c0.1,0.4,0.3,0.8,0.7,1l6.6,3.7c0.9,0.5,2,0.5,2.9,0c1.8-1,5.8-3.4,6.5-3.9c1.1-0.7,1.2-2.6,1.3-3.1l0,0v-7.6L306.3,139.1z"></path> <linearGradient id="_Path_173_1_" gradientUnits="userSpaceOnUse" x1="308.7525" y1="240.3185" x2="306.3025" y2="236.2685" gradientTransform="matrix(1 0 0 -1 0 388)"> <stop offset="0" style="stop-color:#787FD6"></stop> <stop offset="1" style="stop-color:#A7B1FF"></stop> </linearGradient> <path id="_Path_173" class="st27" d="M314.8,151.8V144l-9.7-5.6v8c0,0.6-0.2,2.3-1.3,2.9c-0.8,0.5-3.7,2.2-5.4,3.2 c-0.6,0.3-0.6,1.1,0.3,1.7l6.6,3.7c0.9,0.5,2,0.5,2.9,0c1.8-1,4.6-2.7,5.3-3.1C314.6,154.1,314.7,152.3,314.8,151.8L314.8,151.8z "></path> </g> <g id="_Group_40"> <linearGradient id="_Path_174_1_" gradientUnits="userSpaceOnUse" x1="316.9322" y1="264.0821" x2="313.7122" y2="270.8821" gradientTransform="matrix(1 0 0 -1 0 388)"> <stop offset="0" style="stop-color:#787FD6"></stop> <stop offset="1" style="stop-color:#A7B1FF"></stop> </linearGradient> <path id="_Path_174" class="st28" d="M342.5,156.6l0.1-48.8c0-1.5-0.8-2.9-2-3.7l-55.6-32c-0.4-0.3-0.8-0.3-1.2-0.1l0,0l-2.2,1.2 l1.5,2.1v47.3c0,1.5,0.8,2.9,2,3.7l54.2,33.2l0.5-0.2l2-1.1l0,0C342.3,157.9,342.6,157.3,342.5,156.6z"></path> <path id="_Path_175" class="st8" d="M338.6,159.5l-55.6-32c-1.2-0.9-2-2.2-2-3.7v-49c0-1.4,0.9-2.1,2-1.5l55.6,32 c1.2,0.8,2,2.2,2,3.7v47.6C340.6,158.1,339.7,160.2,338.6,159.5z"></path> <linearGradient id="_Path_176_1_" gradientUnits="userSpaceOnUse" x1="742.4542" y1="452.816" x2="547.6242" y2="709.446" gradientTransform="matrix(0.87 0.5 -0.5 -1.44 166.17 828.2)"> <stop offset="0" style="stop-color:#6318FF"></stop> <stop offset="1" style="stop-color:#F4F6FF"></stop> </linearGradient> <path id="_Path_176" class="st29" d="M337.3,155.4l-52.9-30.5c-0.5-0.4-0.8-1-0.9-1.6V78c0-0.6,0.4-0.9,0.9-0.7l52.9,30.5 c0.5,0.4,0.8,1,0.9,1.6v45.3C338.1,155.4,337.8,155.7,337.3,155.4z"></path> </g> </g> </g> <g id="_6"> <g id="_Group_44"> <linearGradient id="_Path_291_1_" gradientUnits="userSpaceOnUse" x1="192.5156" y1="70.4026" x2="238.6377" y2="70.4026" gradientTransform="matrix(1 0 0 -1 0 388)"> <stop offset="0" style="stop-color:#666ED6"></stop> <stop offset="1" style="stop-color:#BCD2FF"></stop> </linearGradient> <path id="_Path_291" class="st30" d="M236.9,313.4L236.9,313.4c-0.3-0.5-0.7-0.9-1.1-1.3c-1.8-2.2-5.7-6.4-9.1-8.5l-22.6,0.1 c0,0-6.2,4.9-9.3,8.8l0,0c-4.3,5.2-2.4,11.6,5.4,15.6c9.5,4.9,24.1,4.5,32.6-0.9C238.8,323.4,240.2,318,236.9,313.4z"></path> <path id="_Path_292" class="st31" d="M226.2,314.2c-5.3,3.4-14.3,3.6-20.2,0.5s-6.3-8.3-1.1-11.6s14.3-3.6,20.2-0.5 S231.5,310.8,226.2,314.2z"></path> <linearGradient id="_Path_293_1_" gradientUnits="userSpaceOnUse" x1="202.51" y1="101.9982" x2="228.67" y2="101.9982" gradientTransform="matrix(1 0 0 -1 0 388)"> <stop offset="0" style="stop-color:#666ED6"></stop> <stop offset="1" style="stop-color:#BCD2FF"></stop> </linearGradient> <path id="_Path_293" class="st32" d="M219.6,284.3c0-13,9.1-25.6,9.1-25.6h-26.2c0,0,9,11,9,25.6c0,10.8-3.1,17.7-4.8,20.5 c-0.4,0.4-0.8,0.9-1,1.5l0,0c-0.7,2,0.3,4.1,3.1,5.5c4.1,2.1,10.5,2,14.2-0.4c2.9-1.9,3.3-4.5,1.4-6.6 C221.3,298.4,219.6,291.4,219.6,284.3z"></path> </g> <linearGradient id="_Path_294_1_" gradientUnits="userSpaceOnUse" x1="207.6801" y1="149.2915" x2="238.9501" y2="149.7415" gradientTransform="matrix(1 0 0 -1 0 388)"> <stop offset="0" style="stop-color:#2D2C33"></stop> <stop offset="1" style="stop-color:#54535B"></stop> </linearGradient> <path id="_Path_294" class="st33" d="M272.6,224.7l-22.2-0.7l-19.9-11.5c-6.5-3.8-17.9-3.3-25.4,1.1l-15,8.7l-15.7-0.5l-1.8,10.8 c-0.2,0.5-0.3,1.1-0.3,1.7l0,0c-0.1,2.5,1.3,4.9,4.4,6.6l24.1,23.7c6.5,3.8,24.7,3.3,32.2-1l32.4-22.6c3.9-2.2,5.9-5,6.2-7.8l0,0 L272.6,224.7z"></path> <path id="_Path_295" class="st34" d="M213.5,249.3l-34.9-20.2c-6.5-3.8-5.7-10.3,1.8-14.7l27.4-15.8c7.5-4.4,18.9-4.8,25.4-1.1 l34.9,20.2c6.5,3.8,5.7,10.4-1.8,14.7L239,248.2C231.4,252.6,220,253.1,213.5,249.3z"></path> </g> <g id="_5"> <g id="_6-2"> <linearGradient id="_Path_296_1_" gradientUnits="userSpaceOnUse" x1="317.63" y1="182.305" x2="344.538" y2="182.305" gradientTransform="matrix(1 0 0 -1 0 388)"> <stop offset="0" style="stop-color:#4761D6"></stop> <stop offset="1" style="stop-color:#A7B1FF"></stop> </linearGradient> <path id="_Path_296" class="st35" d="M341.1,210.9c-5,3.2-13.5,3.4-19,0.5s-6-7.8-1-10.9s13.5-3.4,19-0.5S346,207.7,341.1,210.9z"></path> <path id="_Path_297" class="st36" d="M341.1,210c-5,3.2-13.5,3.4-19,0.5s-6-7.8-1-10.9s13.5-3.4,19-0.5S346,206.8,341.1,210z"></path> <path id="_Path_298" class="st37" d="M338,207.6c-3.4,2.2-9.3,2.3-13.1,0.4s-4.1-5.4-0.7-7.5s9.3-2.3,13.1-0.4 S341.4,205.4,338,207.6z"></path> <g id="_Group_45"> <g id="_Group_46"> <g id="_Group_47"> <linearGradient id="_Path_299_1_" gradientUnits="userSpaceOnUse" x1="336.53" y1="190.9601" x2="344.5877" y2="190.9601" gradientTransform="matrix(1 0 0 -1 0 388)"> <stop offset="0" style="stop-color:#505AD6"></stop> <stop offset="1" style="stop-color:#A7B1FF"></stop> </linearGradient> <path id="_Path_299" class="st38" d="M337,201.9l-0.4-2.4c1.5-0.3,5.7-1.5,5.7-3.7c0-0.8-0.3-0.9-0.4-1c-0.9-0.3-1.8-0.3-2.7,0 l-0.8-2.3c0.3-0.1,3.1-1,4.9,0.3c0.9,0.7,1.4,1.8,1.3,2.9C344.6,200.4,337.7,201.8,337,201.9z"></path> </g> <linearGradient id="_Path_300_1_" gradientUnits="userSpaceOnUse" x1="321.98" y1="189.526" x2="340.1534" y2="189.526" gradientTransform="matrix(1 0 0 -1 0 388)"> <stop offset="0" style="stop-color:#4761D6"></stop> <stop offset="1" style="stop-color:#A7B1FF"></stop> </linearGradient> <path id="_Path_300" class="st39" d="M340.2,190.1H322c0,0-0.1,5,1.4,7.9c0.9,1.8,1.5,3.7,1.8,5.6v0.1l0,0 c0.2,1,0.9,1.9,1.9,2.3c2.6,1.2,5.7,1.2,8.3-0.2c0.8-0.4,1.3-1.1,1.5-2l0,0v-0.1c0.3-2,0.9-3.9,1.8-5.7 C340.3,195.1,340.2,190.1,340.2,190.1z"></path> <path id="_Path_301" class="st40" d="M337.8,193.6c-3.4,2.1-9.1,2.3-12.9,0.4s-4-5.3-0.7-7.4s9.1-2.3,12.9-0.4 S341.2,191.5,337.8,193.6z"></path> <linearGradient id="_Path_302_1_" gradientUnits="userSpaceOnUse" x1="338.72" y1="197.9234" x2="323.38" y2="197.9234" gradientTransform="matrix(1 0 0 -1 0 388)"> <stop offset="0" style="stop-color:#505AD6"></stop> <stop offset="1" style="stop-color:#A7B1FF"></stop> </linearGradient> <path id="_Path_302" class="st41" d="M336.5,192.9c-3.2,1.7-7,1.8-10.3,0.3c-3-1.6-3.2-4.2-0.5-5.9c3.2-1.7,7.1-1.8,10.3-0.2 C338.9,188.5,339.2,191.2,336.5,192.9z"></path> <path id="_Path_303" class="st42" d="M325.7,190.4c-0.5,0.3-1,0.7-1.4,1.2c0.5,0.7,1.1,1.2,1.9,1.6c3.3,1.6,7.1,1.4,10.3-0.3 c0.5-0.3,1-0.7,1.4-1.2c-0.5-0.7-1.1-1.2-1.9-1.6C332.7,188.5,328.8,188.6,325.7,190.4z"></path> </g> <path id="_Path_304" class="st43" d="M333.5,190.2c0.3-0.2,0.6-0.4,0.9-0.7c-2.9-0.9-6.1-0.6-8.8,0.9c-0.5,0.3-1,0.7-1.4,1.2 l0.1,0.1C327.5,192.3,330.7,191.7,333.5,190.2z"></path> </g> <g id="_Group_48"> <path id="_Compound_Path_8" class="st44" d="M333.2,191.3c-1.1,0-1.9,0.5-1.9,0.9s0.8,0.9,1.9,0.9s1.9-0.5,1.9-0.9 S334.3,191.3,333.2,191.3z"></path> </g> <g id="_Group_49"> <path id="_Compound_Path_9" class="st44" d="M330.3,192.6c-0.6,0-0.9,0.2-0.9,0.4s0.4,0.4,0.9,0.4s0.9-0.2,0.9-0.4 S330.9,192.6,330.3,192.6z"></path> </g> </g> <g> <linearGradient id="_Path_305_1_" gradientUnits="userSpaceOnUse" x1="333.1316" y1="175.8" x2="333.1316" y2="238.56" gradientTransform="matrix(1 0 0 -1 0 388)"> <stop offset="0" style="stop-color:#FFDFFF"></stop> <stop offset="1" style="stop-color:#FFECD4"></stop> </linearGradient> <path id="_Path_305" class="st45" d="M323.6,190c0,0-2.1-7.3,3.1-12.2s2.1-12.5-1.8-15s-0.8-10.6,5.2-12.9s6.3,2.4,6.3,2.4 s-11.8,0.6-2.3,8.9s10.2,10.6,8.1,18.1c-1.8,6.3-4.6,6.8-3.8,10c1,3.7-4.5,5-7,5.1S323.8,193.6,323.6,190z"></path> </g> </g> <g id="_4-2"> <g id="_Group_50"> <g id="_Group_51"> <linearGradient id="_Path_306_1_" gradientUnits="userSpaceOnUse" x1="279.2727" y1="76.7668" x2="299.5627" y2="81.7268" gradientTransform="matrix(0.9992 -3.891102e-02 -3.891102e-02 -0.9992 20.8999 376.9208)"> <stop offset="0" style="stop-color:#453CD6"></stop> <stop offset="1" style="stop-color:#8490FF"></stop> </linearGradient> <path id="_Path_306" class="st46" d="M303.2,277.7c0,0-2.8,0.6-3.1,2.9s-1.7,2.9-2.4,4.8s-1.1,5.4-0.6,6.6s4.7,4.8,7.5,4.9 s5.3-2.8,7.5-4.1s5.3-0.8,8-2.3s10.9-6.2,11.5-8.5s1-4-0.2-5.4c-1.8-1.6-4-2.7-6.3-3.3c-1-0.1-8.6,3.3-11.2,2.7 s-10.4,1.5-10.4,1.5L303.2,277.7z"></path> <linearGradient id="_Path_307_1_" gradientUnits="userSpaceOnUse" x1="185.9024" y1="7.38" x2="200.5524" y2="6.09" gradientTransform="matrix(0.9094 -0.416 -0.416 -0.9094 132.8129 359.9221)"> <stop offset="0" style="stop-color:#EF8C93"></stop> <stop offset="1" style="stop-color:#FFB9B9"></stop> </linearGradient> <path id="_Path_307" class="st47" d="M298.8,266.2c0,0,4,10.9,4,13.8s4,3.8,7.6,2.5s4.2-5.5,4.2-5.5l-5.5-15.6L298.8,266.2z"></path> <linearGradient id="_Path_308_1_" gradientUnits="userSpaceOnUse" x1="291.2471" y1="78.1825" x2="285.2071" y2="78.3524" gradientTransform="matrix(0.9992 -3.891102e-02 -3.891102e-02 -0.9992 20.8999 376.9208)"> <stop offset="0" style="stop-color:#626270"></stop> <stop offset="1" style="stop-color:#484850"></stop> </linearGradient> <path id="_Path_308" class="st48" d="M331.6,282c0.5-1.3,0.7-2.8,0.5-4.2c-0.3,0.9-0.8,1.8-1.3,2.7c-0.9,1.5-11,7.5-13,8.3 s-5.9,0.1-8.1,1.8s-4,2-5.7,1.3c-1.4-0.5-5.3-3.7-6.7-4.9c-0.4,1.8-0.5,4-0.1,4.9c0.5,1.2,4.7,4.8,7.5,4.9s5.3-2.8,7.5-4.1 s5.3-0.8,8-2.3S330.9,284.2,331.6,282z"></path> <path id="_Path_309" class="st6" d="M302.8,280c0,0,0.2,6.4,6.9,5.1c2-0.2,3.9-1.3,5-3c0.9-1.1,1.3-4,0-5 C314.3,276.8,302.8,280,302.8,280z"></path> <path id="_Path_310" class="st7" d="M314.7,277.1l-1.6-4.5c-1,1.9-2.7,4.3-5.2,5c-1.8,0.5-3.8,0.5-5.5-0.2 c0.2,0.8,0.4,1.7,0.4,2.6c0,3,4,3.8,7.6,2.5S314.7,277.1,314.7,277.1z"></path> <g id="_Group_52"> <path id="_Path_311" class="st7" d="M320.1,281.1l-3.7-2.7c-0.4-0.3-0.5-0.9-0.2-1.4l0,0c0.3-0.4,0.9-0.5,1.4-0.2l3.7,2.7 c0.4,0.3,0.5,0.9,0.2,1.4l0,0C321.1,281.3,320.5,281.4,320.1,281.1z"></path> </g> <g id="_Group_53"> <path id="_Path_312" class="st7" d="M323.9,279.7l-3.4-2.5c-0.4-0.3-0.5-0.8-0.2-1.2c0,0,0,0,0,0l0,0c0.3-0.4,0.8-0.5,1.2-0.2 c0,0,0,0,0,0l3.4,2.5c0.4,0.3,0.5,0.8,0.2,1.2c0,0,0,0,0,0l0,0C324.9,279.9,324.3,280,323.9,279.7 C323.9,279.7,323.9,279.7,323.9,279.7z"></path> </g> </g> <linearGradient id="_Path_313_1_" gradientUnits="userSpaceOnUse" x1="253.7" y1="166.8275" x2="321.35" y2="145.9875" gradientTransform="matrix(1 0 0 -1 0 388)"> <stop offset="0" style="stop-color:#AFADEA"></stop> <stop offset="1" style="stop-color:#FFF7FA"></stop> </linearGradient> <path id="_Path_313" class="st49" d="M310.3,262.1c-2-10.7-6.5-30.8-7.7-36l-1.8-7.7l-20-11.5l-8.5-4.9l-32.7-18.8l-26.2,51.6 c0,0,11.2,16.4,29.3,8.1c17.1-7.9,21.6-11.3,21.6-11.3l12.9-8.9c2,7,4.4,14.1,6.7,18.2c4.2,7.4,11.5,20.4,13.5,26.1 c0.6,1.7,2.4,2.6,4.1,2c0.1,0,0.2-0.1,0.3-0.1l6.7-3.2C309.9,265,310.6,263.6,310.3,262.1z"></path> </g> <g> <linearGradient id="_Path_314_1_" gradientUnits="userSpaceOnUse" x1="272.9746" y1="159.8787" x2="309.5032" y2="131.8174" gradientTransform="matrix(1 0 0 -1 0 388)"> <stop offset="0" style="stop-color:#AFADEA"></stop> <stop offset="1" style="stop-color:#FFF7FA"></stop> </linearGradient> <path id="_Path_314" class="st50" d="M288.2,220.4c-0.1-1.6-1.4-2.8-2.9-2.7c-0.7,0-1.4,0.3-1.9,0.8l0,0c-1.1,1.2-6.2,4.2-6.2,4.2 c2,7,4.4,14.1,6.7,18.2c4.2,7.4,11.5,20.4,13.5,26.1c0.4,1,1.2,1.7,2.2,2h0.1c0,0-1.5-22.4-7-30.9 C289.3,232.9,288.4,225.5,288.2,220.4z"></path> </g> </g> <g id="_3"> <path id="_Path_315" class="st51" d="M257.7,142.9c1.8-0.7,3.7-1,5.6-0.8c2.5,0.2,5.8,0.9,7.3,2.9c2.2,2.9-0.3,4.1-0.3,4.1 l-5.3,2.8c-3.2,1.7-7,1.8-10.4,0.4c-1.2-0.5-2.4-1-3.5-1.6c0-0.2,1.2-5.4,2.3-6C254.1,144.4,256.1,143.6,257.7,142.9z"></path> <path id="_Path_316" class="st52" d="M269.7,147.6c-1.2,1.4-14.3,3.6-14.3,3.6v0.4c0,0-3.4-0.5-3.1-0.3c0.6,0.3,1.5,0.6,2.4,1 c3.4,1.4,7.3,1.3,10.5-0.4l5.3-2.7c0,0,2.1-1.1,0.6-3.6C270.7,146.3,270.3,147,269.7,147.6z"></path> <g id="_Group_54"> <linearGradient id="_Compound_Path_10_1_" gradientUnits="userSpaceOnUse" x1="276.1419" y1="221.9789" x2="305.9319" y2="222.7789" gradientTransform="matrix(1 0 0 -1 0 388)"> <stop offset="0" style="stop-color:#EF8C93"></stop> <stop offset="1" style="stop-color:#FFB9B9"></stop> </linearGradient> <path id="_Compound_Path_10" class="st53" d="M304.2,163.8l-3.5,0.1c-0.2,0-0.5,0.1-0.7,0.2l-3.4,1.3l0,0l1.6-1.8 c0.3-0.2,0.6-0.3,0.9-0.3l0.9-0.2l0.1,0.1c0.6,0.5,1.4,0.4,1.9-0.1l0,0l0,0h0.6c0.8,0,1.4-0.5,1.4-1.3c0-0.8-0.6-1.1-1.4-1.1 l-1.5-0.1l-3.8-3.4c-0.5-0.4-1.2-0.5-1.7-0.1l-1.6,1.2l-3.4-1.7c-0.6-0.3-1.3-0.2-1.7,0.2l-2.9,3.2c-1.2,0.5-1.6,2-2.5,3.2 l-3.5,5.2l5.7,6.7c1-1.6,2.5-3,4.2-3.9c1.9-0.8,4-1.4,6.1-1.7c0.6-0.1,1.1-0.4,1.5-0.8l3.1-1.8c0.2-0.1,0.4-0.2,0.7-0.2l2.5-0.4 c0.7,0,1.3-0.6,1.3-1.4c0,0,0,0,0,0C305.3,164,305,163.8,304.2,163.8z M297.2,160.4l-0.1,0.1l-3.1,2l0,0l1.7-2 C296.2,160.2,296.7,160.2,297.2,160.4L297.2,160.4z M291.4,160l0.2,0.1l-1,0.7l-0.6-0.2C290.4,160.1,290.8,159.7,291.4,160 L291.4,160z"></path> <linearGradient id="_Path_317_1_" gradientUnits="userSpaceOnUse" x1="243.2102" y1="240.8552" x2="269.9402" y2="239.7252" gradientTransform="matrix(1 0 0 -1 0 388)"> <stop offset="0" style="stop-color:#EF8C93"></stop> <stop offset="1" style="stop-color:#FFB9B9"></stop> </linearGradient> <path id="_Path_317" class="st54" d="M268.4,145l-0.6-0.2c0.2-0.2,0.3-0.4,0.4-0.7c0.1-0.9-0.6-1.6-1.4-1.7l-1.1-0.2 c0-0.8-0.6-1.4-1.3-1.6l-6.2-1.4c-0.5-0.1-1,0.1-1.4,0.5l-3.2,3.3c-0.2,0.1-0.2,0.5-0.4,0.7c-3.4,3.4-9.9,5.8-9.9,5.8 s4.1,3.1,4.7,4.2s1,3,3.8,1.8c1.7-0.7,4.2-0.8,6.1-1l4.1,0.5c0.5,0.2,1,0.1,1.4-0.2l4-2.3c0.7-0.5,1.1-1.1,0.6-1.8 c-0.5-0.7-1.5-0.9-2.2-0.4l-2.9,1c-0.4,0.3-1,0.4-1.4,0.2l-0.9-0.1c0.1-1.2,0-2.4-0.3-3.6l1-0.9c0.4-0.4,1-0.5,1.5-0.4l5.1,0.8 c0.8,0.2,1.7-0.3,1.9-1.1c0,0,0,0,0,0C269.8,145.5,269.3,145.2,268.4,145z"></path> <linearGradient id="_Path_318_1_" gradientUnits="userSpaceOnUse" x1="277.89" y1="319.2693" x2="272.73" y2="336.5793" gradientTransform="matrix(0.9466 0.3223 0.3223 -0.9466 -137.3275 384.0437)"> <stop offset="0" style="stop-color:#453CD6"></stop> <stop offset="1" style="stop-color:#8490FF"></stop> </linearGradient> <path id="_Path_318" class="st55" d="M243.9,148.2c0,0,5-0.7,6.2,4s-0.8,5.4-4,7s-36.6,17.1-36.6,17.1s-2-13.8-1.8-14.6 s4.9-2.6,4.9-2.6S238.7,148.5,243.9,148.2z"></path> <linearGradient id="_Path_319_1_" gradientUnits="userSpaceOnUse" x1="209.1868" y1="183.8395" x2="200.1668" y2="242.2395" gradientTransform="matrix(1 0 0 -1 0 388)"> <stop offset="0" style="stop-color:#453CD6"></stop> <stop offset="1" style="stop-color:#8490FF"></stop> </linearGradient> <path id="_Path_319" class="st56" d="M193.9,129c-0.3-0.5-12.8-3.6-16.2-3.2s-8.9,5.7-10.8,13.2c-3,12-3,13.4-3,13.4l44.1,26.1 l11,53.5c0,0,0.4,6.5,8.3,6.1s13-8,15.2-10.3s3.3-6.3,3.3-6.3l-3.2-42.2c0,0-11.8-20.2-14.6-25.1c-3.2-5.8-18.8-14-23.3-18.1 C201.5,133.3,197.8,130.9,193.9,129z"></path> <path id="_Path_320" class="st31" d="M204.8,135c-3-2.6-6.3-4.8-9.9-6.6c-0.1-0.2-3.3-0.3-6.2-1c0,0-6.6,7,1.1,12.7 s20.6,7.9,27.6,4.6C213,141.7,208.8,138.5,204.8,135z"></path> <g id="_Group_55"> <linearGradient id="_Path_321_1_" gradientUnits="userSpaceOnUse" x1="206.0752" y1="261.6872" x2="199.3052" y2="247.8372" gradientTransform="matrix(1 0 0 -1 0 388)"> <stop offset="0" style="stop-color:#EF8C93"></stop> <stop offset="1" style="stop-color:#FFB9B9"></stop> </linearGradient> <path id="_Path_321" class="st57" d="M227.3,105.2l-1.6-6l-25.9,9.8c-0.9,4.1-2.1,8.1-3.6,12.1c-1.4,3.3-1.8,5.2-2.7,6.7 l-2.3,2.7c0,0-2.8,4.7,4.3,8.8s14.7,3.6,16.4,2.8s-4.4-2.3-3.5-9.5c0.1-0.7,0.2-1.4,0.4-2.1c1.7,1.3,3.8,2.1,6,2.1 c3.5-3.5,6.5-7.5,8.8-11.8C226,115.9,227.3,110.6,227.3,105.2z"></path> <linearGradient id="_Path_322_1_" gradientUnits="userSpaceOnUse" x1="205.013" y1="272.8687" x2="219.533" y2="259.4287" gradientTransform="matrix(0.9997 -2.268733e-02 -2.268733e-02 -0.9997 10.8151 385.4091)"> <stop offset="0" style="stop-color:#EF8C93"></stop> <stop offset="1" style="stop-color:#FFB9B9"></stop> </linearGradient> <path id="_Path_322" class="st58" d="M228.2,104.3l-1.9-6.3L199.1,109c-1.8,3.1-3.2,6.4-4.3,9.8c3.6,3.9,9.3,9.7,14.3,12.7 l1.5,0.9c1.5,0.8,3.3,1.2,5,1.2c3.7-3.8,6.7-8.1,9-12.8C227.1,115.7,228.3,110,228.2,104.3z"></path> <linearGradient id="_Path_323_1_" gradientUnits="userSpaceOnUse" x1="226.7423" y1="326.5369" x2="239.4123" y2="317.2669" gradientTransform="matrix(0.9891 0.1475 0.1475 -0.9891 -69.8014 394.5589)"> <stop offset="0" style="stop-color:#EF8C93"></stop> <stop offset="1" style="stop-color:#FFCADB"></stop> </linearGradient> <path id="_Path_323" class="st59" d="M215.6,113.9c0.2-0.7,0.1-1.4-0.4-1.9c-1.4-1.5-4.4-4.1-6-0.1c-2.2,5.4,2.3,7.2,3.5,7.2 C213.6,119.2,215,115.7,215.6,113.9z"></path> <path id="_Path_324" class="st60" d="M215.3,115c0.1-0.3,0-0.7-0.2-1c-0.8-0.8-2.4-2.3-3.3,0c-1.2,2.9,1.2,3.9,1.9,3.9 C214.2,117.9,215,116,215.3,115z"></path> <g id="_Group_56"> <g id="_Group_57"> <path id="_Path_325" class="st31" d="M230.1,116.3c-6.4-1.7-16.9-4.8-18-4.9l-0.5-0.1c-1.4-0.2-2.6-0.4-3.6,0.9 c-1.1,1.5-0.2,4.2-0.2,4.2l-1,0.3c0-0.1-1-3.1,0.3-5.1s3.2-1.6,4.6-1.3l0.5,0.1c1.5,0.2,17.5,3.9,18.3,4.1L230.1,116.3z"></path> </g> </g> <path id="_Path_326" class="st61" d="M186.6,94.8c-2,6.3-0.2,9.8,1.6,17.1c0.8,3.1,0.2,5,1.3,6.6s7.4,4.9,9.4,4s5.4-4,5.4-4 s3.8,2.1,5.5,0.2c0.8-1.1,1.2-2.4,1.2-3.8c0-1,0.8-1.8,1.8-1.9c1.4-0.1,2.7-0.4,4-1c2.9-1.4,0.6-8.1,3.7-8.5s4.2,2,7.9,2.1 s6-9.7,1.6-13.9s-13.2-10.5-21.7-9.3s-7.6,2.1-11.4,2.1s-3.2,2.5-4,4.2S187.7,91.3,186.6,94.8z"></path> <g id="_Group_58"> <path id="_Path_327" class="st31" d="M228.2,119.7c-0.2,0-0.4,0-0.7-0.1l-2-0.7l0.3-1l2,0.7c0.7,0.2,1.4-0.2,1.6-0.8 c0,0,0,0,0,0l0.9-3c0.1-0.3-0.1-0.7-0.4-0.8l-2.6-1l0.3-1l2.7,1c0.8,0.3,1.3,1.2,1.1,2.1l-0.9,3 C230.1,118.9,229.2,119.6,228.2,119.7L228.2,119.7z"></path> </g> </g> <linearGradient id="_Path_328_1_" gradientUnits="userSpaceOnUse" x1="272.5579" y1="170.9981" x2="228.2279" y2="268.3281" gradientTransform="matrix(1 0 0 -1 0 388)"> <stop offset="0" style="stop-color:#453CD6"></stop> <stop offset="1" style="stop-color:#8490FF"></stop> </linearGradient> <path id="_Path_328" class="st62" d="M284,170.3c-2-1.9-5-2.3-7.3-0.9c-4.4,3.3-25.4,18.4-25.4,18.4l-0.5,0.8 c-3-6.1-15.3-31.1-18.1-34.2c-3.3-3.6-15.2-9.6-15.2-9.6c-14.2,5.9-1.1,19.6,1.6,26.1s22.1,37.7,27.5,38.7s10.6-4.9,10.6-4.9 l1.4-1.4c5.4-5.1,23.9-22.7,26-25C286.9,175.6,287.7,173.6,284,170.3z"></path> </g> </g> <g id="_2"> <g id="_Group_59"> <linearGradient id="_Path_329_1_" gradientUnits="userSpaceOnUse" x1="238.63" y1="147.0999" x2="250.0086" y2="147.0999" gradientTransform="matrix(1 0 0 -1 0 388)"> <stop offset="0" style="stop-color:#787FD6"></stop> <stop offset="1" style="stop-color:#F0EBFF"></stop> </linearGradient> <path id="_Path_329" class="st63" d="M244.2,253.9c-1.4,0-2.8-0.4-4-1.1l-0.7-0.4c-0.9-0.6-1.3-1.8-0.7-2.7l0,0 c0.6-0.9,1.8-1.3,2.7-0.7l0.7,0.4c0.5,0.3,1.9,0.8,2.5,0.4c0.3-0.1,1.1-0.9,1.1-4.3v-15.7c0-1.1,0.9-2,2-2l0,0c1.1,0,2,0.9,2,2 v15.7c0,3.9-1.1,6.5-3.2,7.7C246,253.7,245.1,253.9,244.2,253.9z"></path> </g> <linearGradient id="_Path_330_1_" gradientUnits="userSpaceOnUse" x1="171.954" y1="198.0211" x2="182.924" y2="182.9411" gradientTransform="matrix(1 0 0 -1 0 388)"> <stop offset="0" style="stop-color:#626270"></stop> <stop offset="1" style="stop-color:#484850"></stop> </linearGradient> <path id="_Path_330" class="st64" d="M144.6,165.5c-0.7-4.4,0.4-9,3.2-12.5c4.7-6.4,10.8-8.9,20.9-3.3s31.4,16.3,37,23.6 s14,45.3,16.6,59.8s1.7,26-6.4,29.5s-12.8,3.9-21.3-0.6s-25.2-14.2-30.6-19.9S146,177.9,144.6,165.5z"></path> <linearGradient id="_Path_331_1_" gradientUnits="userSpaceOnUse" x1="148.443" y1="197.3845" x2="306.633" y2="92.6845" gradientTransform="matrix(1 0 0 -1 0 388)"> <stop offset="0" style="stop-color:#2D2C33"></stop> <stop offset="1" style="stop-color:#54535B"></stop> </linearGradient> <path id="_Path_331" class="st65" d="M195.3,180c-4.9-6.4-23.4-15.7-32.2-20.6s-14.1-2.7-18.2,2.9c-0.1,0.2-0.3,0.4-0.4,0.6 c0,0.8,0.1,1.7,0.2,2.5c1.4,12.4,14.5,70.5,19.4,76.6c5.6,7.1,16.1,12.2,24.7,16.7c5.6,2.3,9.4,1.7,15.5-0.9 c7.1-3.1,7.9-13.1,5.6-25.7S200.2,186.4,195.3,180z"></path> <linearGradient id="_Path_332_1_" gradientUnits="userSpaceOnUse" x1="231.53" y1="163.165" x2="238.58" y2="163.165" gradientTransform="matrix(1 0 0 -1 0 388)"> <stop offset="0" style="stop-color:#2D2C33"></stop> <stop offset="1" style="stop-color:#54535B"></stop> </linearGradient> <path id="_Path_332" class="st66" d="M275.1,209.9l-6.1,2.3c-1.5-0.6-3.2-0.5-4.6,0.2l-8.1,4.7l-29.6,11.3v6.5c0,0.1,0,0.2,0,0.4 l0,0l0,0c0.2,0.7,0.7,1.3,1.3,1.6l3.8,2.2c1.7,1,3.8,1,5.5,0.2l36.7-21.2c0.6-0.3,1-0.9,1-1.5l0,0V209.9z"></path> <path id="_Path_333" class="st67" d="M274.2,211.4l-36.7,21.2c-1.8,0.8-3.8,0.7-5.5-0.2l-3.9-2.2c-1.6-0.9-1.8-2.4-0.4-3.2 l36.7-21.2c1.8-0.8,3.8-0.7,5.5,0.2l3.9,2.2C275.4,209.1,275.6,210.6,274.2,211.4z"></path> </g> <g id="_1"> <g id="_Group_60"> <path id="_Path_334" class="st10" d="M163.1,222.2c-1.2-2-2.9-3.7-5-4.8c-2.3-1.3-4.1-1.7-5.2-1.1l-4.1,2.4l2.5,4.1 c0.3,1.6,0.9,3.1,1.7,4.4c0.8,1.3,1.9,2.5,3.1,3.4l2.9,4.8l4.2-2.4c1.2-0.6,1.8-2,1.8-4.3C164.9,226.4,164.3,224.2,163.1,222.2z"></path> <path id="_Compound_Path_11" class="st68" d="M146.9,223c0-2.3,0.6-3.8,1.8-4.4c1.2-0.6,3-0.2,5.2,1.1c2.1,1.2,3.8,2.8,5,4.8 c1.2,1.9,1.8,4.2,1.8,6.4c0,2.3-0.6,3.7-1.8,4.3c-1.2,0.6-2.9,0.3-5-0.9c-2.1-1.2-3.9-2.9-5.2-4.9 C147.5,227.5,146.9,225.3,146.9,223z"></path> </g> <g id="_Group_61"> <g id="_Group_62"> <polygon id="_Path_335" class="st10" points="124.7,162.6 120.5,164.9 119,177.4 106.6,209.7 114.4,214.2 113.9,218.6 118.1,216.3 136.1,169.2 "></polygon> <path id="_Compound_Path_12" class="st68" d="M132,171.6l-18.1,47.1l-11.5-6.6l18.1-47.1L132,171.6z"></path> </g> <g id="_Group_63"> <polygon id="_Path_336" class="st10" points="143.6,173.3 139.4,175.7 137.9,188.2 125.5,220.4 133.4,224.9 132.8,229.4 137,227 155,179.9 "></polygon> <path id="_Compound_Path_13" class="st68" d="M150.9,182.3l-18.1,47.1l-11.5-6.6l18.1-47.1L150.9,182.3z"></path> </g> </g> </g> </svg> 