<?xml version="1.0" encoding="UTF-8"?> <svg xmlns="http://www.w3.org/2000/svg" height="480pt" viewBox="0 -1 480.08011 480" width="480pt"> <path d="m382.601562.0390625c53.910157.0742185 97.554688 43.8398435 97.476563 97.7499995-.074219 53.910157-43.835937 97.554688-97.75 97.480469-11.5625.027344-23.03125-2.070312-33.839844-6.179687l-56.660156 9.941406 16.382813-38.140625c-15.070313-17.570313-23.355469-39.953125-23.359376-63.101563.003907-53.984374 43.765626-97.7460932 97.75-97.7499995zm0 0" fill="#00acea"></path> <path d="m191.601562 387.890625v7.089844l-41.460937 33.847656-41.71875-33.847656v-7.089844l7.867187-24.851563.132813-.390624c21.890625 7.320312 45.648437 6.808593 67.207031-1.449219l.101563.269531zm0 0" fill="#edb288"></path> <path d="m247.199219 160.449219v109.171875c-.011719 54.773437-44.421875 99.164062-99.195313 99.152344-54.757812-.007813-99.144531-44.394532-99.152344-99.152344v-69.207032s47.597657 7.640626 83.308594-39.960937v-.058594c.660156.039063 1.320313.058594 1.980469.058594zm0 0" fill="#f7caa5"></path> <path d="m132.160156 170.390625v.058594c-35.710937 47.601562-83.308594 39.960937-83.308594 39.960937v-39.960937s6.75-49.070313 54.910157-48.347657c-8.082031 16.777344-1.03125 36.925782 15.746093 45.007813 3.960938 1.90625 8.261719 3.023437 12.652344 3.28125zm0 0" fill="#4b5d63"></path> <path d="m98.917969 121.988281c5.746093-11.941406 17.828125-19.535156 31.082031-19.527343h71.011719c38.097656-.003907 68.984375 30.878906 68.988281 68.980468v.007813h-140c-.675781 0-1.351562-.019531-2.027344-.058594-19.015625-1.117187-33.527344-17.4375-32.410156-36.453125.265625-4.496094 1.40625-8.890625 3.359375-12.949219zm0 0" fill="#3f5054"></path> <path d="m232.621094 389.015625h-41.019532l-41.460937 33.847656-41.71875-33.847656h-40.761719c-37.394531.027344-67.6874998 30.363281-67.660156 67.753906v.027344 21.21875h300v-21.21875c.171875-37.265625-29.898438-67.609375-67.160156-67.78125-.074219 0-.144532 0-.21875 0zm0 0" fill="#00efd1"></path> <path d="m105.710938 266.019531c-14.871094-.003906-26.929688-12.058593-26.929688-26.929687v-4.230469c0-5.523437 4.476562-10 10-10s10 4.476563 10 10v4.230469c0 3.828125 3.101562 6.929687 6.929688 6.929687 3.824218 0 6.929687-3.101562 6.929687-6.929687v-4.230469c0-5.523437 4.476563-10 10-10s10 4.476563 10 10v4.230469c-.019531 14.867187-12.066406 26.914062-26.929687 26.929687zm0 0" fill="#edb288"></path> <path d="m190.339844 266.019531c-14.871094-.003906-26.925782-12.058593-26.929688-26.929687v-4.230469c0-5.523437 4.476563-10 10-10 5.523438 0 10 4.476563 10 10v4.230469c0 3.828125 3.105469 6.929687 6.929688 6.929687 3.824218-.007812 6.917968-3.105469 6.921875-6.929687v-4.230469c0-5.523437 4.476562-10 10-10 5.519531 0 10 4.476563 10 10v4.230469c-.015625 14.863281-12.058594 26.910156-26.921875 26.929687zm0 0" fill="#edb288"></path> <g fill="#fedb41"> <path d="m395 84.988281h-61c-5.523438 0-10-4.476562-10-10 0-5.519531 4.476562-10 10-10h61c5.523438 0 10 4.480469 10 10 0 5.523438-4.476562 10-10 10zm0 0"></path> <path d="m435 124.988281h-101c-5.523438 0-10-4.476562-10-10 0-5.519531 4.476562-10 10-10h101c5.523438 0 10 4.480469 10 10 0 5.523438-4.476562 10-10 10zm0 0"></path> </g> </svg> 