<?xml version="1.0" encoding="UTF-8"?> <svg xmlns="http://www.w3.org/2000/svg" viewBox="0 0 261.78 260.58"> <defs> <style>.cls-1{fill:#1040ac;}</style> </defs> <title>down blue</title> <g id="Слой_2" data-name="Слой 2"> <g id="Layer_1" data-name="Layer 1"> <g id="Layer_2" data-name="Layer 2"> <g id="content"> <path class="cls-1" d="M127.69,0l5,43.52-5.68.66L122.55,5.37,108.15,7l1.52,13.17c1.09,9.43,1.92,20-3.74,24.84a13.15,13.15,0,0,1-6.41,2.83L98.29,43.4a10,10,0,0,0,4.32-2.85c3.09-3.83,2.44-12.32,1.63-19.3L102.11,3Z"></path> <path class="cls-1" d="M158.42,3.82l-5.78,17.53c-2.18,6.61-4.09,12-6.29,17.43l.1.1c3.52-3.63,7.6-7.28,12.25-11.22l20.52-17,5.37,1.77L170.88,54.05l-5.06-1.67,5.84-17.72c2.22-6.73,3.91-11.65,6.07-16.75l-.17-.12a135,135,0,0,1-12.33,11.47L145.39,45.65l-5.74-1.89,13.7-41.61Z"></path> <path class="cls-1" d="M200.07,77.9c-2.23-.65-6-2.72-9.9-6.35-9-8.4-10.56-20.44-.78-31,9.33-10,22.47-10.54,32.42-1.3,4,3.71,5.73,6.92,6.29,8.5L224,50.24a20.51,20.51,0,0,0-5.24-7.35c-7.53-7-17-6.82-24.82,1.61-7.3,7.86-7.46,17.11.35,24.36a22.58,22.58,0,0,0,8,5Z"></path> <path class="cls-1" d="M241.13,76.6l-5.48-12.15,4.38-2L253.37,92,249,94l-5.51-12.21-35.55,16-2.35-5.21Z"></path> <path class="cls-1" d="M227,113.74l-14.12-3.34-.51-5.83,44.94,11,.59,6.8-42.35,18.69-.52-6,13.32-5.86Zm5.65,13.93,12.19-5.37c2.77-1.22,5.3-2.09,7.77-3v-.13c-2.65-.42-5.36-.9-8.09-1.51l-13-3.18Z"></path> <path class="cls-1" d="M254.12,164.66l-17.34-6.33c-6.53-2.38-11.86-4.47-17.23-6.84l-.11.1c3.52,3.64,7,7.83,10.83,12.6l16.33,21-1.94,5.31-41.16-15,1.83-5,17.53,6.39c6.66,2.43,11.52,4.27,16.55,6.59l.13-.16a132.28,132.28,0,0,1-11.08-12.69L212.7,150.28l2.07-5.68,41.16,15Zm6.16,9.86c-2-.45-4.1-.53-5.14,2.34s.5,4.13,2.43,5.11l-1.49,4.09c-3.92-1.78-5.53-5.13-3.64-10.32,1.83-5,5.2-6.48,9.34-5.31Z"></path> <path class="cls-1" d="M221.62,213.86l9.1-9.73,3.51,3.29L212.08,231.1l-3.51-3.29,9.15-9.78L189.23,191.4l3.91-4.18Z"></path> <path class="cls-1" d="M166.46,230.8l15.16-7.8-7.2-14-16.9,8.64-2.16-4.22,21.93-11.22,20,39L176.19,252,174,247.73l16-8.2-6.3-12.32L168.59,235Z"></path> <path class="cls-1" d="M126.54,260.44a54.44,54.44,0,0,1-10.37-.24c-5.62-.63-9.13-2-11.6-4.5a9.16,9.16,0,0,1-2.76-8.09c.47-4.2,3.66-7.57,8.43-8.74v-.13c-4-1.5-8.48-5.46-7.76-11.92a11.77,11.77,0,0,1,4.65-8.31c3.35-2.44,8.4-3.18,15.51-2.39a65.31,65.31,0,0,1,8.66,1.49ZM122.91,242l-5.1-.57c-5.94-.66-9.78,2-10.25,6.25-.57,5.1,3.08,7.54,8.77,8.17a23.87,23.87,0,0,0,5,.17Zm2.33-20.87a31,31,0,0,0-4.69-.78c-5.81-.65-11.41.89-12.12,7.22-.66,5.94,4.17,9,10.31,9.65l4.65.52Z"></path> <path class="cls-1" d="M72.17,248.14,81.4,232.3,63.09,221.64l-9.23,15.84-4.94-2.88L71,196.74l4.94,2.88L65.58,217.37,83.89,228l10.34-17.75,4.89,2.85L77.06,251Z"></path> <path class="cls-1" d="M26.68,212.1,42,201.81c5.78-3.87,10.6-7,15.68-9.89v-.14c-5,.7-10.47,1.08-16.56,1.33l-26.63.79-3.15-4.7,36.37-24.4,3,4.43L35.19,179.62c-5.88,3.95-10.24,6.79-15.08,9.49l.05.2a134.58,134.58,0,0,1,16.78-1.47l25.73-.74,3.37,5L29.65,216.5Z"></path> <path class="cls-1" d="M5.78,167.11A20.76,20.76,0,0,1,.36,156.37C-1.07,148.9,1.83,143,8.47,141.71c5.3-1,10,2,12.17,6.87h.13c-.52-6.19,2.59-11.35,8.79-12.53,8.94-1.71,14,5.33,15.49,13.19A22.38,22.38,0,0,1,44.39,161l-4.62-.64a21.27,21.27,0,0,0,.77-10.14c-1.22-6.38-5.34-9.24-10.06-8.33-6.45,1.23-7.12,7.78-6.07,13.27l.49,2.55-4.21.81L20.2,156c-1.09-5.68-5.44-9.42-9.85-8.57s-6.18,4.36-5.29,9a17.89,17.89,0,0,0,4.52,8.4Z"></path> </g> </g> </g> </g> </svg> 