<?xml version="1.0" encoding="UTF-8"?> <svg xmlns="http://www.w3.org/2000/svg" height="441pt" viewBox="-29 0 441 441.74" width="441pt"> <path d="m293.410156 361.46875v50.269531c0 16.570313-13.429687 30-30 30h-233.039062c-16.570313 0-30-13.429687-30-30v-311.46875c0-16.570312 13.429687-30 30-30h70v261.199219c0 16.570312 13.429687 30 30 30zm0 0" fill="#fedb41"></path> <path d="m383.410156 89.671875v251.796875c0 16.570312-13.429687 30-30 30h-233.039062c-16.570313 0-30-13.429688-30-30v-311.46875c0-16.570312 13.429687-30 30-30h176l1 1.03125-1 .96875v71.371094c0 9 7.296875 16.300781 16.300781 16.300781h68.738281l1.03125-1zm0 0" fill="#ffffff"></path> <path d="m382.441406 88.671875-1.03125 1h-68.738281c-9.003906 0-16.300781-7.300781-16.300781-16.300781v-71.371094l1-.96875zm0 0" fill="#22afdb"></path> <g fill="#1040ac"> <path d="m328.191406 213.179688h-187.621094c-5.523437 0-10-4.476563-10-10 0-5.523438 4.476563-10 10-10h187.621094c5.523438 0 10 4.476562 10 10 0 5.523437-4.476562 10-10 10zm0 0"></path> <path d="m252.890625 157.238281h-112.320313c-5.523437 0-10-4.476562-10-10 0-5.519531 4.476563-10 10-10h112.320313c5.523437 0 10 4.480469 10 10 0 5.523438-4.476563 10-10 10zm0 0"></path> <path d="m328.191406 273.179688h-187.621094c-5.523437 0-10-4.476563-10-10 0-5.523438 4.476563-10 10-10h187.621094c5.523438 0 10 4.476562 10 10 0 5.523437-4.476562 10-10 10zm0 0"></path> </g> </svg>