<?xml version="1.0" encoding="UTF-8"?> <svg xmlns="http://www.w3.org/2000/svg" height="449pt" viewBox="-49 0 449 449.22" width="449pt"> <path d="m246.410156 353.390625v65.828125c-.007812 16.566406-13.433594 29.996094-30 30h-186c-16.570312 0-30-13.429688-30-30v-65.828125zm0 0" fill="#fedb41"></path> <path d="m246.410156 30v41.308594h-246v-41.308594c0-16.570312 13.429688-30 30-30h186c16.566406.0078125 29.992188 13.433594 30 30zm0 0" fill="#fedb41"></path> <path d="m.109375 61.609375h246v302h-246zm0 0" fill="#d4e1f4"></path> <path d="m246.410156 106.699219c59.847656 1.667969 107.015625 51.535156 105.347656 111.382812-1.601562 57.507813-47.84375 103.746094-105.347656 105.347657-1.050781.03125-2.101562.050781-3.148437.050781-12.84375.027343-25.578125-2.296875-37.582031-6.859375l-62.929688 11.027344 18.191406-42.347657c-16.75-19.507812-25.953125-44.371093-25.941406-70.082031.003906-59.953125 48.605469-108.554688 108.558594-108.558594.953125 0 1.902344.011719 2.851562.039063zm0 0" fill="#00acea"></path> <g fill="#fedb41"> <path d="m258.109375 200.609375h-61c-5.523437 0-10-4.476563-10-10s4.476563-10 10-10h61c5.523437 0 10 4.476563 10 10s-4.476563 10-10 10zm0 0"></path> <path d="m298.109375 240.609375h-101c-5.523437 0-10-4.476563-10-10s4.476563-10 10-10h101c5.523437 0 10 4.476563 10 10s-4.476563 10-10 10zm0 0"></path> </g> </svg> 