<svg id="_375_VECTOR_ICONS" data-name="375 VECTOR ICONS" xmlns="http://www.w3.org/2000/svg" width="31.96" height="25.91" viewBox="0 0 31.96 25.91"><defs><style>.cls-1{fill:#e61a4b;}</style></defs><title>bag</title><path class="cls-1" d="M498.86,306.31h-8.5v-1.06a4,4,0,0,0-4.3-4.27h-2a4,4,0,0,0-4.3,4.3v1h-8.53a2,2,0,0,0-2.09,2.13v4.17s9.1,3.31,15.91,3.31c7.44,0,16-3.34,16-3.34v-4.14A2.06,2.06,0,0,0,498.86,306.31Zm-16.27-1.15c0-2.13,2.5-2.17,2.5-2.17a2.19,2.19,0,0,1,2.46,2.2v1.07h-5v-1.1Zm5.13,10h-5.29v-2h5.29v2Z" transform="translate(-469.1 -300.98)"/><path class="cls-1" d="M501.06,324.75V314.12A42.31,42.31,0,0,1,485,317.31,44.11,44.11,0,0,1,469.1,314v10.73a2,2,0,0,0,2.06,2.13h27.74A2,2,0,0,0,501.06,324.75Zm-13.34-5.62a1.32,1.32,0,0,1-1.32,1.32h-2.65a1.32,1.32,0,0,1-1.32-1.32v-1.36h5.29v1.36Z" transform="translate(-469.1 -300.98)"/></svg>