<svg id="_375_VECTOR_ICONS" data-name="375 VECTOR ICONS" xmlns="http://www.w3.org/2000/svg" width="27.02" height="31.27" viewBox="0 0 27.02 31.27"><defs><style>.cls-1{fill:#e61a4b;}</style></defs><title>sertificates</title><path class="cls-1" d="M439.68,130.22a2.51,2.51,0,0,0,.12-0.74,3.09,3.09,0,0,1,1.6-2.77,1.67,1.67,0,0,0,.68-2.54,3.08,3.08,0,0,1,0-3.2,1.67,1.67,0,0,0-.68-2.54,3.09,3.09,0,0,1-1.6-2.77,1.67,1.67,0,0,0-1.86-1.86,3.09,3.09,0,0,1-2.78-1.6,1.67,1.67,0,0,0-2.54-.68,3.1,3.1,0,0,1-3.21,0,1.67,1.67,0,0,0-2.54.68,3.08,3.08,0,0,1-2.78,1.6,1.67,1.67,0,0,0-1.86,1.86,3.09,3.09,0,0,1-1.6,2.77A1.67,1.67,0,0,0,420,121a3.08,3.08,0,0,1,0,3.2,1.67,1.67,0,0,0,.68,2.54,3.08,3.08,0,0,1,1.6,2.77,2.58,2.58,0,0,0,.09.59l-4.83,9.48,4-.45,2.23,3.35s2.92-6.1,4.13-8.58a1.86,1.86,0,0,0,1.52-.25,3.08,3.08,0,0,1,3.21,0,1.79,1.79,0,0,0,1.59.21l5,8.52,1.39-3.61,4,0.52Zm-8.66-.35a7.5,7.5,0,1,1,7.5-7.5A7.5,7.5,0,0,1,431,129.87Z" transform="translate(-417.51 -111.18)"/><circle class="cls-1" cx="13.51" cy="11.26" r="5.9"/></svg>