<svg id="_375_VECTOR_ICONS" data-name="375 VECTOR ICONS" xmlns="http://www.w3.org/2000/svg" width="43.69" height="27" viewBox="0 0 43.69 27"><defs><style>.cls-1{fill:#e61a4b;}</style></defs><title>education</title><path class="cls-1" d="M498.4,132v-4.19l4-2.23-21.85-11.67-21.84,11.67,8.71,5.06v3.21l0.08,0a0.66,0.66,0,0,0-.15.38c0,1.46,5.91,2.65,13.21,2.65s13.21-1.19,13.21-2.65a0.69,0.69,0,0,0-.15-0.38l0.08,0v-3.22l3.8-2.34V132A1.14,1.14,0,1,0,498.4,132Zm-17.81,3.85c-6.48,0-11.73-.74-11.73-1.65s5.25-1.64,11.73-1.64,11.73,0.74,11.73,1.64S487.07,135.88,480.59,135.88Zm12.85-7.65c-0.87-.93-4-3.37-12.85-3.37s-12,2.45-12.85,3.38v-0.88s2.54-3.81,12.85-3.81,12.85,3.81,12.85,3.81v0.88Z" transform="translate(-458.74 -113.95)"/><path class="cls-1" d="M497,134.47l-0.48,6.48c1.39-2.16,2.54-1.35,2.54-1.35v-5.13C497.61,135,497,134.47,497,134.47Z" transform="translate(-458.74 -113.95)"/></svg>