<svg id="_375_VECTOR_ICONS" data-name="375 VECTOR ICONS" xmlns="http://www.w3.org/2000/svg" width="24.04" height="31.25" viewBox="0 0 24.04 31.25"><defs><style>.cls-1{fill:#e61a4b;}</style></defs><title>person</title><path class="cls-1" d="M73.66,1304.3c-0.65-1.43-4.58-2.68-4.58-2.68-2.1-.74-2.11-1.48-2.11-1.48-4.13,8.14-7.27,0-7.27,0-0.29,1.1-4.54,2.39-4.54,2.39a4.1,4.1,0,0,0-1.77,1.19c-1.84,2.72-2.05,8.79-2.05,8.79,0,1.38.62,1.53,0.62,1.53,4.23,1.89,10.85,2.22,10.85,2.22a31.59,31.59,0,0,0,11.76-1.93,1.3,1.3,0,0,0,.74-0.81C75.81,1309.19,73.66,1304.3,73.66,1304.3Z" transform="translate(-51.34 -1285.04)"/><path class="cls-1" d="M58.65,1295.85c0.32,2.62,2.57,5.33,4.61,5.33,2.35,0,4.58-2.85,4.93-5.33a1.19,1.19,0,0,0,.43-0.84s0.5-1.79-.16-1.6c0.23-.69,1-3.39-0.49-5.06a4.71,4.71,0,0,0-2.39-1.46l-0.19-.15,0.09,0.12-0.3-.07-0.31-.3a2.6,2.6,0,0,1,.23.28l-0.13,0a2.46,2.46,0,0,0-.29-0.36l0.11,0.24a2,2,0,0,1-.94-1.35,1.74,1.74,0,0,0-.62.52,1.6,1.6,0,0,1,.49-0.74,1.75,1.75,0,0,0-.5.42,1.58,1.58,0,0,0-.75.91l-0.13-.07a2.1,2.1,0,0,1,.28-0.45,2.1,2.1,0,0,0-.34.42l-0.27-.14a2.13,2.13,0,0,1,.33-0.46,2.1,2.1,0,0,0-.3.3c0-.18,0-0.38-0.51.22a6.24,6.24,0,0,0-3.19,3.29s-0.42,1,.14,4c-0.79-.37-0.25,1.56-0.25,1.56A1.19,1.19,0,0,0,58.65,1295.85Zm0-1h0Zm4.54-9.24a1.6,1.6,0,0,0-.27.63l-0.09,0A1.41,1.41,0,0,1,63.15,1285.56Z" transform="translate(-51.34 -1285.04)"/></svg>