<?xml version="1.0" encoding="utf-8"?>
<!-- Generator: Adobe Illustrator 19.2.1, SVG Export Plug-In . SVG Version: 6.00 Build 0)  -->
<svg version="1.1" id="Layer_1" xmlns="http://www.w3.org/2000/svg" xmlns:xlink="http://www.w3.org/1999/xlink" x="0px" y="0px"
	 width="500px" height="100px" viewBox="0 0 500 100" style="enable-background:new 0 0 500 100;" xml:space="preserve">
<style type="text/css">
	.st0{fill:#BF4757;}
	.st1{fill:#313F53;}
</style>
<g>
	<g>
		<g>
			<path class="st0" d="M58.1,19.5v61.9h61.9V19.5H58.1z M76.7,72.2h-9.3V28.8h9.3V72.2z M110.8,38.1H99.9v34.1h-9.3V38.1H79.8v-9.3
				h31V38.1z"/>
		</g>
	</g>
	<g>
		<g>
			<path class="st1" d="M152.9,40.5h-15.8v10.3h14.8v1.4h-14.8v11.3H153v1.4h-17.5V39.1h17.3V40.5z"/>
			<path class="st1" d="M171.6,64.8h-1.4v-4.5c-0.9,3.3-3.6,5.1-7,5.1c-5.1,0-8.3-3.7-8.3-9.8c0-6,3.3-9.9,8.3-9.9
				c3.4,0,5.9,1.8,7,4.8V39.1h1.4V64.8z M156.4,55.6c0,5.3,2.6,8.5,6.8,8.5c4.3,0,6.9-3.3,6.9-8.6c0-4.3-2.1-8.6-7-8.6
				C159.1,47,156.4,50.4,156.4,55.6z"/>
			<path class="st1" d="M190.3,64.8h-1.4v-3.9c-1.2,2.7-3.3,4.4-6.6,4.4c-4.4,0-6.5-2.9-6.5-7.1V46.3h1.4v11.6
				c0,3.3,1.2,6.2,5.4,6.2c4.4,0,6.3-3.9,6.3-7.7v-10h1.4V64.8z"/>
			<path class="st1" d="M202.3,65.3c-5.6,0-8.5-4.4-8.5-9.7c0-6,3.4-9.9,8.7-9.9c4.3,0,7.1,2.3,7.6,6.2h-1.5c-0.4-3-2.7-5-6-5
				c-4.4,0-7.2,3.4-7.2,8.6c0,5.2,2.8,8.6,7,8.6c3.5,0,6-2.2,6.5-5.8h1.4C209.6,62.7,206.7,65.3,202.3,65.3z"/>
			<path class="st1" d="M229.3,64.7c-0.5,0.2-0.9,0.2-1.5,0.2c-1.6,0-2.1-0.7-2.1-3.1v-0.9c-1.6,3-3.7,4.4-7.2,4.4
				c-3.8,0-6.1-1.9-6.1-5.2c0-4.2,3.5-5.4,7.1-5.7c4.8-0.4,5.4-0.5,5.9-1.3c0.2-0.3,0.3-1.1,0.3-1.9c0-2.8-1.8-4.3-5.2-4.3
				c-3.4,0-5.3,1.7-5.6,4.9h-1.4c0.3-4,2.8-6.2,7.1-6.2c2.4,0,4.3,0.7,5.5,2c1.1,1.2,1,2.7,1,4.3v9.6c0,1.1,0,2,1.3,2
				c0.3,0,0.5,0,0.9-0.1V64.7z M224.3,55c-2.7,0.8-5.6,0.4-8.3,1.6c-1.4,0.6-2.2,1.8-2.2,3.4c0,2.5,1.8,4,4.8,4c4,0,6.9-2.7,6.9-6.5
				v-3.3C225.2,54.7,225,54.8,224.3,55z"/>
			<path class="st1" d="M238.2,47.6h-4v12.5c0,1.9-0.1,3.5,2.5,3.5c0.4,0,0.8,0,1.5-0.1v1.3c-0.8,0.1-1.1,0.1-1.7,0.1
				c-3.9,0-3.7-2.4-3.7-5.4v-12h-3.4v-1.3h3.4v-5.8h1.4v5.8h4V47.6z"/>
			<path class="st1" d="M242.4,42.7H241v-3.6h1.4V42.7z M242.4,64.8H241V46.3h1.4V64.8z"/>
			<path class="st1" d="M263,55.7c0,5.9-3.4,9.7-8.6,9.7c-5.2,0-8.6-3.8-8.6-9.8c0-5.9,3.4-9.8,8.6-9.8
				C259.7,45.8,263,49.6,263,55.7z M247.4,55.6c0,5.2,2.8,8.5,7.2,8.5c4.3,0,7-3.3,7-8.4c0-5.2-2.8-8.6-7-8.6
				C250.2,47,247.4,50.5,247.4,55.6z"/>
			<path class="st1" d="M267.6,50.4c1.3-3,3.4-4.6,6.8-4.6c4.2,0,6.5,2.6,6.5,6.9v12.1h-1.4V53.4c0-3.5-1.2-6.3-5.4-6.3
				c-2.4,0-4.3,1.1-5.4,3c-0.7,1.3-1,2.7-1,5.1v9.6h-1.4V46.3h1.4V50.4z"/>
		</g>
		<g>
			<path class="st1" d="M314.5,64.4h-5.6L307,59H298l-2,5.4h-5.5l9.3-24.4h5.5L314.5,64.4z M302.5,46l-3.2,9.1h6.5L302.5,46z"/>
			<path class="st1" d="M324.5,64.9c-5.4,0-9-3.6-9-9.1c0-5.7,3.6-9.5,9.1-9.5c4.7,0,7.9,2.6,8.3,6.7h-4.7c-0.3-1.9-1.6-3-3.5-3
				c-2.6,0-4.2,2.1-4.2,5.7c0,3.5,1.5,5.5,4.1,5.5c2.1,0,3.4-1.2,3.8-3.6h4.7C332.3,62.2,329.1,64.9,324.5,64.9z"/>
			<path class="st1" d="M347.2,64.4c-0.2-0.6-0.3-0.9-0.3-1.7c-1.5,1.5-3.6,2.2-5.7,2.2c-3.9,0-6.3-2-6.3-5.3c0-4.6,4.2-5.2,7.7-5.6
				c3.1-0.4,4.3-0.7,4.3-2.1c0-1.6-1-2.4-3.2-2.4c-2.2,0-3.1,0.7-3.5,2.7h-4.5c0.3-3.9,3.1-5.9,8.2-5.9c3.6,0,7.7,0.8,7.7,5.7v7.6
				c0,1.6,0,3.3,0.6,4.8H347.2z M343.4,56.8c-1.7,0.3-3.6,0.5-3.6,2.6c0,1.5,1,2.4,2.7,2.4c2.5,0,4.3-1.4,4.3-3.9v-2
				C345.7,56.5,344.6,56.6,343.4,56.8z"/>
			<path class="st1" d="M367.9,64.4v-2.3c-1.2,1.8-2.9,2.7-5.3,2.7c-4.9,0-8-3.7-8-9.4c0-5.6,3-9.2,7.7-9.2c2.1,0,4.2,0.9,5.4,2.7
				v-8.9h4.8v24.3H367.9z M363.7,50.1c-2.6,0-4.2,2-4.2,5.4c0,3.4,1.6,5.5,4.2,5.5c2.7,0,4.2-2,4.2-5.4
				C367.9,52.1,366.3,50.1,363.7,50.1z"/>
			<path class="st1" d="M384.5,64.9c-5.4,0-9-3.7-9-9.2c0-5.5,3.7-9.4,8.9-9.4c5.3,0,8.7,3.9,8.7,10.1v0.5h-12.6
				c0.1,3,1.5,4.7,4.1,4.7c1.8,0,2.9-0.8,3.6-2.6h4.6C391.7,62.8,388.5,64.9,384.5,64.9z M384.3,49.8c-2.2,0-3.7,1.5-3.9,4h7.7
				C387.9,51.6,386.8,49.8,384.3,49.8z"/>
			<path class="st1" d="M418.1,64.4V53.9c0-1.9-0.3-3.6-2.8-3.6c-2.5,0-3.4,1.8-3.4,4.2v9.9H407V53.7c0-1.9-0.4-3.5-2.7-3.5
				c-2.8,0-3.5,2.2-3.5,4.6v9.6H396V46.8h4.6v2.4c1.4-1.9,3.1-2.9,5.6-2.9c2.3,0,4.1,1,5,2.9c1.4-1.9,3.3-2.9,5.8-2.9
				c4,0,6,2.5,6,6.3v11.9H418.1z"/>
			<path class="st1" d="M436.3,64.3c-1.4,3.9-2.3,6.4-6.7,6.4c-1.5,0-0.9,0-3.2,0v-4h2.4c1.6,0,2.5-0.9,2.5-2.4
				c0-0.2-0.1-0.5-0.1-0.7l-6.4-16.9h5.2l4,12l3.9-12h5L436.3,64.3z"/>
		</g>
	</g>
</g>
</svg>
