<svg xmlns="http://www.w3.org/2000/svg" xmlns:xlink="http://www.w3.org/1999/xlink" width="30" height="19" viewBox="0 0 30 19"><defs><path id="jmska" d="M1148.16 206.98h-7.1a.86.86 0 0 1-.86-.86c0-.47.39-.85.86-.85h7.1a6.21 6.21 0 0 0 6.24-6.17c0-3.4-2.8-6.17-6.24-6.17h-19.22l1.8 1.78a.85.85 0 0 1 0 1.2.87.87 0 0 1-1.22 0l-3.27-3.23a.87.87 0 0 1-.24-.48v-.01a.85.85 0 0 1 .25-.72l3.26-3.22a.87.87 0 0 1 1.22 0c.33.33.33.87 0 1.2l-1.8 1.78h19.22a7.93 7.93 0 0 1 7.96 7.87 7.93 7.93 0 0 1-7.96 7.88z"/></defs><g><g transform="translate(-1126 -188)"><use fill="#639879" xlink:href="#jmska"/></g></g></svg>