<svg xmlns="http://www.w3.org/2000/svg" xmlns:xlink="http://www.w3.org/1999/xlink" width="16" height="16" viewBox="0 0 16 16"><defs><path id="cdo8a" d="M1053.19 362c0 .32-.02.64-.06.96l.03-.24a7.11 7.11 0 0 1-.4 1.59c-.24.56-.55 1.1-.93 1.58l.14-.19c-.37.48-.8.9-1.27 1.28l.18-.15c-.48.38-1.01.69-1.58.93l.22-.1c-.58.25-1.19.42-1.8.5l.23-.03c-.63.08-1.27.08-1.9 0l.24.03a7.11 7.11 0 0 1-1.81-.5l.21.1a7.13 7.13 0 0 1-1.58-.93l.19.15c-.48-.37-.9-.8-1.27-1.28l.14.19a7.13 7.13 0 0 1-.84-1.37 7.19 7.19 0 0 1-.49-1.8l.03.24a7.33 7.33 0 0 1 0-1.91l-.03.24c.08-.62.25-1.23.5-1.81l-.1.22c.24-.57.55-1.1.93-1.58l-.14.18c.37-.48.8-.9 1.27-1.27l-.19.14a7.13 7.13 0 0 1 1.58-.93l-.21.1c.58-.25 1.18-.42 1.8-.5l-.24.03a7.33 7.33 0 0 1 1.91 0l-.24-.03a7.1 7.1 0 0 1 1.81.5l-.22-.1c.57.24 1.1.55 1.58.93l-.18-.14c.48.37.9.8 1.27 1.27l-.14-.18c.38.48.69 1.01.93 1.58l-.1-.22c.25.58.41 1.19.5 1.8l-.03-.23c.04.31.06.63.06.95 0 .23.1.48.26.64a.91.91 0 0 0 1.29 0c.16-.17.26-.4.26-.64a7.97 7.97 0 0 0-5.31-7.53 7.87 7.87 0 0 0-4.87-.17 7.97 7.97 0 0 0-5.8 7.14 7.96 7.96 0 0 0 7.15 8.51 7.92 7.92 0 0 0 6.6-2.4A7.93 7.93 0 0 0 1055 362c0-.23-.1-.47-.26-.64a.91.91 0 0 0-1.29 0 .95.95 0 0 0-.26.64z"/><path id="cdo8b" d="M1047.92 365.45v-1.25-1.99-.46c0-.22-.1-.47-.27-.63a.94.94 0 0 0-1.3 0 .92.92 0 0 0-.26.63v3.7c0 .23.1.47.27.63a.94.94 0 0 0 1.3 0 .92.92 0 0 0 .26-.63z"/><path id="cdo8c" d="M1047.92 359.05v-.49c0-.23-.1-.47-.27-.64a.93.93 0 0 0-1.3 0 .93.93 0 0 0-.26.64v.49c0 .23.1.47.27.63a.93.93 0 0 0 1.3 0c.15-.17.26-.39.26-.63z"/></defs><g><g transform="translate(-1039 -354)"><g><use fill="#bfbfbf" xlink:href="#cdo8a"/></g><g><use fill="#bfbfbf" xlink:href="#cdo8b"/></g><g><use fill="#bfbfbf" xlink:href="#cdo8c"/></g></g></g></svg>