<svg xmlns="http://www.w3.org/2000/svg" xmlns:xlink="http://www.w3.org/1999/xlink" width="9" height="8" viewBox="0 0 9 8"><defs><path id="rcata" fill="#e11030" d="M440.3 1112.04c.53.49.71 1.07.17 1.62-.54.55-1.12.38-1.62-.14l-2.08-2.14-2.02 2.15c-.5.52-1.1.67-1.63.13-.53-.55-.34-1.13.18-1.63l2.26-2.14c-.8-.68-1.53-1.27-2.23-1.9-.56-.5-.77-1.11-.16-1.68.56-.53 1.13-.32 1.62.2l2.01 2.16c.8-.85 1.44-1.55 2.1-2.23.46-.5 1.03-.62 1.54-.13.56.53.42 1.12-.1 1.62l-2.2 2.08 2.17 2.03z"/></defs><g><g transform="translate(-432 -1106)"><use fill="#383838" xlink:href="#rcata"/></g></g></svg>